<svg width="71" height="69" viewBox="0 0 71 69" fill="none" xmlns="http://www.w3.org/2000/svg">
<g clip-path="url(#clip0_1867_954)">
<path d="M64.5144 46.4708C64.0646 46.1919 64.0458 46.0061 64.2895 45.5785C66.0326 42.4743 67.7383 39.3328 69.4627 36.21C69.9687 35.2992 70.4561 34.3883 70.9996 33.4031C69.3502 33.4031 67.832 33.3846 66.3138 33.4217C65.8827 33.4217 65.714 33.3474 65.6952 32.8827C65.5453 30.0386 65.0205 27.269 64.0458 24.6108C58.2354 8.53191 40.729 0.483145 24.6472 6.45001C24.1224 6.63589 23.9349 6.59872 23.6538 6.11542C21.0859 1.69139 15.9128 -0.706511 10.9083 0.18573C5.81006 1.07797 1.89269 4.92576 0.861806 10.0562C-0.0941071 14.8148 2.11761 19.8522 6.40985 22.5661C6.82221 22.8264 6.84095 23.0122 6.61603 23.4212C4.49803 27.2318 2.39877 31.061 0.280761 34.9088C0.168301 35.1133 -0.0378769 35.3177 -0.000390085 35.6152C1.55531 35.6152 3.09227 35.6337 4.62923 35.5966C5.04159 35.5966 5.19153 35.6709 5.21028 36.117C5.30399 38.1618 5.64137 40.1693 6.14745 42.1397C10.6459 59.3525 29.6142 68.9813 46.2771 62.5311C46.7457 62.3452 46.9518 62.3824 47.233 62.8471C49.7821 67.2897 54.899 69.669 59.9598 68.814C65.0392 67.9589 68.9753 64.1111 70.025 58.9807C70.9996 54.2407 68.7692 49.1661 64.5144 46.4708ZM25.2657 8.58767C29.0331 7.11919 32.9505 6.48719 36.9991 6.72884C42.9407 7.08201 48.3014 9.07097 52.931 12.7886C58.7602 17.4729 62.209 23.4955 63.2398 30.8751C63.4273 32.2507 63.5397 33.6448 63.4835 35.0389C63.4648 35.5408 63.6147 35.6523 64.102 35.6337C65.0954 35.5966 66.1076 35.6152 67.101 35.6152C67.1572 35.894 66.9698 36.0427 66.8761 36.21C65.3204 39.054 63.7459 41.898 62.209 44.742C62.0028 45.1138 61.8154 45.2068 61.403 45.058C59.9035 44.5376 58.3478 44.4446 56.7921 44.5376C60.8782 34.2954 59.5474 25.0012 51.394 17.4171C43.8404 10.4093 34.8998 9.47991 25.3032 13.3463C25.4157 11.8964 25.3032 10.5023 24.9096 9.12673C24.8159 8.77356 25.0033 8.6992 25.2657 8.58767ZM24.3848 16.8967C24.5535 16.4877 24.7971 16.2089 25.1907 16.0044C37.7863 9.07097 53.6995 16.4691 56.3798 30.5405C57.3169 35.485 56.5297 40.1507 54.168 44.5933C53.9431 45.0209 53.662 45.3183 53.1934 45.5042C52.6311 45.7086 52.0875 46.0061 51.5627 46.3035C51.0566 46.5823 50.5881 46.9355 50.0632 47.2886C49.4634 40.9872 46.2208 36.6747 40.3542 34.221C42.997 32.3622 44.4402 29.8713 44.4215 26.6556C44.4215 24.1461 43.4468 22.0085 41.61 20.2983C37.8238 16.7666 31.9009 17.1011 28.5833 21.0419C25.2845 24.964 25.828 30.9867 30.6076 34.2582C27.3837 35.485 24.8346 37.4926 23.0353 40.3552C21.2171 43.2364 20.6736 46.4336 20.9172 49.9468C18.9679 48.1437 17.4872 46.2291 16.4188 44.0357C13.2137 37.4368 13.3449 30.8751 16.7937 24.3692C16.9999 23.9788 17.281 23.7558 17.6934 23.5885C20.8423 22.2315 23.0727 20.0195 24.3848 16.8967ZM35.4434 33.3846C31.7509 33.3846 28.7145 30.3732 28.7332 26.6927C28.7332 23.0308 31.7697 20.0195 35.4809 20.0381C39.1733 20.0381 42.2098 23.0494 42.191 26.7299C42.1723 30.3918 39.1358 33.4031 35.4434 33.3846ZM37.5801 36.2472C37.3177 37.158 36.418 37.8458 35.4434 37.8272C34.4687 37.8272 33.569 37.1208 33.3254 36.21C33.2317 35.8568 33.3254 35.7639 33.6628 35.7267C34.2626 35.6709 34.8623 35.5594 35.4246 35.5966C36.0807 35.5594 36.6804 35.6709 37.2802 35.7267C37.6551 35.7825 37.6551 35.9497 37.5801 36.2472ZM2.62369 12.1566C2.62369 6.4686 7.27205 1.85868 13.0075 1.85868C18.743 1.85868 23.3914 6.4686 23.3914 12.1566C23.3914 17.8447 18.743 22.4546 13.0075 22.4546C7.27205 22.4732 2.62369 17.8633 2.62369 12.1566ZM45.5273 60.4678C34.7499 64.6874 21.8732 61.5273 14.3383 52.8094C10.5334 48.4225 8.26545 43.3665 7.57194 37.6227C7.422 36.4516 7.32828 35.262 7.40325 34.0909C7.44074 33.4775 7.23456 33.366 6.67226 33.4031C5.71635 33.4589 4.76043 33.4217 3.80452 33.4217C3.67332 33.2173 3.84201 33.1057 3.91698 32.9756C5.49143 30.0944 7.08462 27.2132 8.67781 24.332C8.79027 24.1275 8.79027 23.7558 9.24011 23.9231C10.8146 24.4435 12.4265 24.6294 14.0384 24.4993C9.72744 35.7639 11.6393 45.6343 21.3483 53.144C28.6395 58.7948 36.8866 59.3711 45.3961 55.672C45.4524 55.5791 45.5648 55.5419 45.6211 55.6162C45.7335 55.7835 45.696 55.9508 45.5648 56.0995C45.4899 57.3264 45.6023 58.5532 45.9397 59.7429C46.0522 60.1332 45.9584 60.3005 45.5273 60.4678ZM45.0213 53.3856C37.7113 56.7873 30.6263 56.3969 23.7662 52.1588C23.6163 52.0659 23.4664 51.9543 23.2977 51.8428C23.1102 51.7313 23.0727 51.564 23.1102 51.3595C23.1477 51.0435 23.3914 51.1922 23.5413 51.1922C24.2911 51.1736 25.0408 51.1922 25.7905 51.1922C32.5382 51.1922 39.2858 51.1922 46.0334 51.1922C46.2958 51.1922 46.5395 51.1922 46.8206 51.1922C46.5957 52.3261 45.9772 52.9395 45.0213 53.3856ZM44.9275 48.9802C44.5339 48.9988 44.4215 48.8872 44.4215 48.4969C44.4402 46.9912 44.4215 45.4856 44.4402 43.9799C44.4402 43.5338 44.3465 43.4037 43.8779 43.4037C42.191 43.4223 42.191 43.4037 42.191 45.0766C42.191 46.2105 42.1723 47.3444 42.191 48.4783C42.191 48.8687 42.0973 48.9802 41.6849 48.9802C37.5239 48.9616 33.3629 48.9616 29.2018 48.9802C28.8082 48.9802 28.6958 48.8872 28.6958 48.4969C28.7145 46.9726 28.6958 45.4298 28.7145 43.9056C28.7145 43.5152 28.6208 43.4037 28.2272 43.4037C26.4653 43.3851 26.4653 43.3665 26.4653 45.0766C26.4653 46.2105 26.4466 47.3444 26.4653 48.4783C26.4653 48.8687 26.3716 48.9988 25.9592 48.9802C25.1345 48.943 24.3285 48.9616 23.5038 48.9802C23.2414 48.9802 23.0915 48.9802 23.0727 48.627C22.8291 43.0319 26.1467 38.3662 30.87 36.5074C30.9075 36.4888 30.9637 36.4888 31.0012 36.4888C31.7509 38.7752 33.3254 40.0578 35.4246 40.0578C37.5239 40.0578 39.1171 38.7752 39.8668 36.433C43.2032 37.8086 45.5836 40.1135 46.9331 43.4223C47.5891 45.058 47.814 46.7682 47.7765 48.5155C47.7765 48.8315 47.7016 48.9616 47.3454 48.943C46.5582 48.9616 45.7335 48.943 44.9275 48.9802ZM60.7657 66.3417C60.672 66.3603 60.597 66.3975 60.5033 66.4161C60.4846 66.4161 60.4846 66.4161 60.4658 66.4161C59.6411 66.6391 58.7789 66.7507 57.8792 66.7693C56.8296 66.7507 55.8175 66.602 54.8616 66.286C50.6068 65.0034 47.5141 61.0812 47.5141 56.4341C47.5141 50.7461 52.1625 46.1362 57.898 46.1362C63.6335 46.1362 68.2818 50.7461 68.2818 56.4341C68.2818 61.1556 65.1142 65.1149 60.7657 66.3417Z" fill="#333333"/>
<path opacity="0.7" d="M47.7955 48.5527C47.833 46.8054 47.6081 45.0952 46.952 43.4594C45.6025 40.1321 43.2221 37.8272 39.8858 36.4702C39.136 38.8123 37.5429 40.0949 35.4436 40.0949C33.3443 40.0949 31.7699 38.8124 31.0202 36.526C30.9827 36.526 30.9264 36.526 30.8889 36.5446C26.1656 38.3848 22.848 43.0505 23.0917 48.6642C23.1104 49.0174 23.2791 49.0174 23.5228 49.0174C24.3475 49.0174 25.1535 48.9988 25.9782 49.0174C26.3905 49.036 26.4842 48.9058 26.4842 48.5155C26.4655 47.3816 26.4842 46.2477 26.4842 45.1138C26.4842 43.4037 26.4842 43.4223 28.2461 43.4409C28.6397 43.4409 28.7522 43.5524 28.7335 43.9427C28.7147 45.467 28.7335 47.0098 28.7147 48.5341C28.7147 48.943 28.8272 49.0174 29.2208 49.0174C33.3818 48.9988 37.5429 48.9988 41.7039 49.0174C42.0975 49.0174 42.21 48.9058 42.21 48.5155C42.1912 47.3816 42.21 46.2477 42.21 45.1138C42.21 43.4223 42.21 43.4409 43.8969 43.4409C44.3655 43.4409 44.4779 43.571 44.4592 44.0171C44.4404 45.5228 44.4592 47.0284 44.4404 48.5341C44.4404 48.943 44.5529 49.036 44.9465 49.0174C45.7712 48.9802 46.5772 48.9988 47.4019 49.0174C47.7205 48.9988 47.7955 48.8687 47.7955 48.5527Z" fill="url(#paint0_linear_1867_954)"/>
<path opacity="0.7" d="M42.1726 26.7299C42.1726 23.0494 39.1549 20.0567 35.4625 20.0381C31.7513 20.0381 28.7336 23.0308 28.7148 26.6927C28.7148 30.3732 31.7325 33.3659 35.425 33.3845C39.1362 33.4031 42.1726 30.3918 42.1726 26.7299Z" fill="url(#paint1_linear_1867_954)"/>
<path d="M35.4246 35.6336C34.8623 35.5965 34.2625 35.708 33.6627 35.7637C33.3253 35.8009 33.2316 35.8939 33.3253 36.247C33.569 37.1579 34.4687 37.8456 35.4433 37.8642C36.418 37.8642 37.3364 37.195 37.5801 36.2842C37.6738 35.9868 37.6551 35.8195 37.2802 35.7823C36.6617 35.708 36.0619 35.5779 35.4246 35.6336Z" fill="#FDFDFD"/>
<path d="M45.5652 56.0624C45.6964 55.9137 45.7339 55.7278 45.6214 55.5791C45.5652 55.5048 45.4527 55.5419 45.3965 55.6349C45.7339 55.672 45.5839 55.8951 45.5652 56.0624Z" fill="#333333"/>
<path d="M45.5652 56.0623C45.5839 55.895 45.7339 55.672 45.3965 55.6162C45.6401 55.7092 45.4902 55.9322 45.5652 56.0623Z" fill="#333333"/>
<path d="M19.3801 25.2984C19.0053 25.0196 18.8741 25.1497 18.6866 25.5029C17.1684 28.3097 16.4187 31.3025 16.3999 34.4811C16.3999 34.7971 16.3812 35.1317 16.3999 35.4477C16.4562 36.8418 16.4562 36.8418 17.8057 36.7303C17.9744 36.7117 18.1243 36.6559 18.293 36.6559C18.6866 36.6559 18.7616 36.47 18.7241 36.0983C18.4055 33.1427 18.9303 30.2987 20.1486 27.5848C20.3548 27.1015 20.9358 26.581 20.7484 26.1907C20.5235 25.7631 19.83 25.6144 19.3801 25.2984Z" fill="#333333"/>
<path d="M19.2112 38.9051C19.1737 38.7936 19.1363 38.682 18.9863 38.7192C18.3865 38.8865 17.768 39.0352 17.1682 39.2025C16.9058 39.2769 17.0557 39.4813 17.0932 39.5929C17.2619 40.1505 17.4681 40.6896 17.6368 41.2286C17.7305 41.526 17.8617 41.5818 18.1429 41.4517C18.6864 41.1915 19.4549 41.1729 19.7173 40.6896C19.9047 40.3736 19.4736 39.723 19.3237 39.2211C19.2862 39.1281 19.2487 39.0166 19.2112 38.9051Z" fill="#333333"/>
<path d="M50.9251 27.9569C50.9813 28.0498 51.0938 28.2357 51.1125 28.2171C51.7686 27.9755 52.5183 27.8268 53.0056 27.3992C53.268 27.1762 52.7432 26.5628 52.537 26.1352C52.4058 25.8564 52.3121 25.5404 52.0685 25.3359C51.9185 25.4289 51.7873 25.4846 51.6748 25.559C50.0817 26.4141 50.0817 26.4141 50.9251 27.9569Z" fill="url(#paint2_linear_1867_954)"/>
<path d="M52.0686 31.8975C52.0686 31.916 52.0873 31.9346 52.0873 31.9718C52.1061 32.232 52.2185 32.325 52.4997 32.2692C53.0245 32.1763 53.5493 32.1019 54.0741 32.0276C54.2428 32.009 54.4115 31.9718 54.3553 31.8603C54.2053 31.1539 54.0741 30.5777 53.9617 29.9829C53.9054 29.704 53.7555 29.7226 53.5681 29.7784C52.9683 29.9457 52.2185 29.9643 51.8249 30.3546C51.6188 30.5405 51.9749 31.3584 52.0686 31.8975Z" fill="url(#paint3_linear_1867_954)"/>
<path d="M49.0133 24.6109C49.2382 24.4622 49.4257 24.3321 49.6131 24.202C50.8877 23.2911 50.8502 23.3097 49.838 22.1015C49.4069 21.581 49.1258 21.5252 48.6947 22.0457C48.4135 22.3989 47.8137 22.6777 47.7763 23.0309C47.7388 23.3655 48.2823 23.7373 48.5635 24.0904C48.7134 24.2577 48.8634 24.425 49.0133 24.6109Z" fill="url(#paint4_linear_1867_954)"/>
<path d="M60.5033 66.416C60.4846 66.416 60.4846 66.416 60.4658 66.416C60.4846 66.4346 60.5033 66.416 60.5033 66.416Z" fill="white"/>
</g>
<path d="M60.7338 53.2323C60.8921 53.0817 61.1027 52.9984 61.3211 53C61.5396 53.0017 61.7489 53.0881 61.9049 53.2412C62.0608 53.3942 62.1512 53.6018 62.157 53.8202C62.1628 54.0386 62.0835 54.2508 61.9358 54.4118L57.4537 60.0173C57.3766 60.1003 57.2836 60.1669 57.1802 60.2131C57.0768 60.2594 56.9651 60.2843 56.8519 60.2864C56.7386 60.2885 56.6261 60.2677 56.5211 60.2253C56.416 60.183 56.3206 60.1198 56.2405 60.0397L53.2681 57.0674C53.1854 56.9903 53.119 56.8972 53.0729 56.7939C53.0269 56.6905 53.0021 56.579 53.0001 56.4659C52.9981 56.3527 53.0189 56.2404 53.0613 56.1355C53.1037 56.0306 53.1668 55.9353 53.2468 55.8553C53.3268 55.7753 53.4221 55.7122 53.527 55.6698C53.6319 55.6274 53.7442 55.6066 53.8574 55.6086C53.9705 55.6106 54.0821 55.6354 54.1854 55.6814C54.2887 55.7275 54.3818 55.7939 54.4589 55.8766L56.8112 58.2278L60.7125 53.257C60.7195 53.2484 60.727 53.2401 60.735 53.2323H60.7338Z" fill="url(#paint5_linear_1867_954)"/>
<path d="M13 6C11.6215 6 10.5 7.19627 10.5 8.66667V10.2667H10C9.73478 10.2667 9.48043 10.379 9.29289 10.5791C9.10536 10.7791 9 11.0504 9 11.3333V15.6C9 15.8829 9.10536 16.1542 9.29289 16.3542C9.48043 16.5543 9.73478 16.6667 10 16.6667H16C16.2652 16.6667 16.5196 16.5543 16.7071 16.3542C16.8946 16.1542 17 15.8829 17 15.6V11.3333C17 11.0504 16.8946 10.7791 16.7071 10.5791C16.5196 10.379 16.2652 10.2667 16 10.2667H15.5V8.66667C15.5 7.19627 14.3785 6 13 6ZM11.5 8.66667C11.5 7.78453 12.173 7.06667 13 7.06667C13.827 7.06667 14.5 7.78453 14.5 8.66667V10.2667H11.5V8.66667ZM13.5 14.3856V15.6H12.5V14.3856C12.3252 14.2788 12.1848 14.118 12.0974 13.9245C12.01 13.7309 11.9796 13.5136 12.0103 13.3012C12.041 13.0889 12.1314 12.8914 12.2694 12.7349C12.4074 12.5784 12.5867 12.4702 12.7835 12.4245C12.9297 12.3901 13.0813 12.391 13.2271 12.4274C13.3729 12.4637 13.5092 12.5345 13.626 12.6345C13.7427 12.7345 13.837 12.8612 13.9017 13.0052C13.9664 13.1493 14 13.3069 14 13.4667C13.9997 13.6532 13.9533 13.8364 13.8656 13.9977C13.7778 14.159 13.6517 14.2928 13.5 14.3856Z" fill="#333333"/>
<defs>
<linearGradient id="paint0_linear_1867_954" x1="23.0791" y1="49.0196" x2="47.7995" y2="49.0196" gradientUnits="userSpaceOnUse">
<stop stop-color="#F60093"/>
<stop offset="1" stop-color="#FD5B7A"/>
</linearGradient>
<linearGradient id="paint1_linear_1867_954" x1="28.7148" y1="33.3846" x2="42.1726" y2="33.3846" gradientUnits="userSpaceOnUse">
<stop stop-color="#F60093"/>
<stop offset="1" stop-color="#FD5B7A"/>
</linearGradient>
<linearGradient id="paint2_linear_1867_954" x1="50.3643" y1="28.2184" x2="53.0775" y2="28.2184" gradientUnits="userSpaceOnUse">
<stop stop-color="#F60093"/>
<stop offset="1" stop-color="#FD5B7A"/>
</linearGradient>
<linearGradient id="paint3_linear_1867_954" x1="51.7617" y1="32.2848" x2="54.3663" y2="32.2848" gradientUnits="userSpaceOnUse">
<stop stop-color="#F60093"/>
<stop offset="1" stop-color="#FD5B7A"/>
</linearGradient>
<linearGradient id="paint4_linear_1867_954" x1="47.7744" y1="24.6109" x2="50.5845" y2="24.6109" gradientUnits="userSpaceOnUse">
<stop stop-color="#F60093"/>
<stop offset="1" stop-color="#FD5B7A"/>
</linearGradient>
<linearGradient id="paint5_linear_1867_954" x1="53" y1="60.2865" x2="62.1573" y2="60.2865" gradientUnits="userSpaceOnUse">
<stop stop-color="#F60093"/>
<stop offset="1" stop-color="#FD5B7A"/>
</linearGradient>
<clipPath id="clip0_1867_954">
<rect width="71" height="69" fill="white"/>
</clipPath>
</defs>
</svg>
