<svg width="59" height="61" viewBox="0 0 59 61" fill="none" xmlns="http://www.w3.org/2000/svg">
<path d="M13.8637 19.0312C13.8324 18.0386 13.8951 16.7941 13.9735 15.5652C14.0205 14.683 14.2557 14.4152 15.1336 14.3207C20.9815 13.6275 26.359 11.6267 31.2818 8.41286C31.7678 8.09778 32.2538 7.75119 32.7085 7.38885C33.2415 6.96348 33.7275 6.96348 34.2919 7.38885C37.9449 10.1143 41.9898 12.0048 46.3639 13.2336C48.2139 13.7535 50.0952 14.1001 51.9922 14.3207C52.6977 14.3994 52.9799 14.7145 53.027 15.4235C53.1837 17.5188 53.1994 19.6141 53.074 21.7094C53.027 22.5286 52.7134 22.9224 52.102 22.8909C51.4905 22.8752 51.1456 22.4025 51.2083 21.5676C51.3181 19.9606 51.2867 18.338 51.2397 16.7311C51.224 16.2899 51.1299 16.1009 50.6282 16.0379C44.5139 15.1399 38.9012 12.9658 33.8373 9.40538C33.5864 9.23208 33.4453 9.23208 33.1945 9.40538C28.4284 12.761 23.1764 14.8878 17.4539 15.8961C17.0777 15.9591 16.7171 16.0694 16.3408 16.0694C15.8862 16.0694 15.8078 16.3057 15.7921 16.6838C15.5569 24.2773 16.576 31.6345 19.7899 38.5663C20.5111 40.1259 21.342 41.6226 22.3611 43.009C22.5336 43.2453 22.706 43.4973 22.7217 43.7967C22.7374 44.2063 22.5492 44.5371 22.1573 44.6947C21.687 44.8995 21.295 44.7262 20.9971 44.3323C20.37 43.4973 19.8213 42.6151 19.3039 41.7014C16.576 36.8491 15.0709 31.603 14.3497 26.089C14.0362 23.8204 13.8794 21.5518 13.8637 19.0312Z" fill="#333333"/>
<path d="M25.6999 26.9871C26.6249 26.9713 27.4088 27.3652 28.0829 28.0583C28.9295 28.9091 29.7762 29.7283 30.5914 30.5948C30.8893 30.9098 31.0461 30.9256 31.3596 30.5948C33.9465 27.9638 36.5647 25.3329 39.1829 22.7334C40.5468 21.3628 42.3498 21.2368 43.7451 22.3711C45.0777 23.4581 45.3286 25.4432 44.3252 26.8295C44.1371 27.0816 43.9332 27.3179 43.6981 27.5385C40.343 30.9098 36.988 34.297 33.6172 37.6684C31.8927 39.4013 30.0584 39.3856 28.3338 37.6526C26.7033 36.0142 25.0571 34.3757 23.4266 32.7216C21.7177 30.9571 22.1254 28.3262 24.2419 27.3021C24.6809 27.0816 25.1512 26.9871 25.6999 26.9871ZM43.0553 25.0493C43.0239 23.8205 41.8951 23.1588 40.9858 23.7102C40.735 23.852 40.5155 24.0568 40.3117 24.2616C37.4897 27.0816 34.6833 29.9173 31.8613 32.7373C31.2028 33.399 30.7482 33.399 30.1054 32.7531C28.9923 31.6503 27.8948 30.5317 26.7817 29.4289C26.0919 28.7515 25.2609 28.7043 24.6652 29.2557C24.0381 29.8543 24.0851 30.705 24.7906 31.4297C26.4681 33.1312 28.1457 34.8169 29.8389 36.4868C30.5914 37.2272 31.3439 37.243 32.0808 36.5183C35.577 33.0366 39.0418 29.5392 42.5222 26.0418C42.8515 25.711 43.071 25.3486 43.0553 25.0493Z" fill="#333333"/>
<path d="M52.6822 25.9785C52.3529 28.6252 51.8199 31.2561 51.036 33.8556C49.578 38.7551 47.3047 43.1978 43.8556 46.9787C41.0806 50.0193 37.7412 52.2564 33.9472 53.816C33.5552 53.9736 33.226 53.8948 32.8654 53.753C29.432 52.3351 26.3905 50.3186 23.7879 47.6719C23.1922 47.0575 23.1138 46.5376 23.5684 46.0965C23.9761 45.6869 24.5405 45.7657 25.1049 46.3171C27.1273 48.3809 29.4633 49.972 32.0188 51.3269C33.1006 51.894 33.9472 51.8625 35.0133 51.3111C40.7984 48.3809 44.8589 43.8437 47.5242 37.9674C49.2331 34.2021 50.2051 30.2479 50.7695 26.1675C50.7852 25.9942 50.8165 25.8367 50.8635 25.6792C51.0203 25.0805 51.4123 24.7969 51.9453 24.8757C52.4157 24.9545 52.6979 25.3641 52.6822 25.9785Z" fill="#333333"/>
<path d="M16.8735 55.7224C16.4031 55.6436 16.0112 55.5806 15.5879 55.5018C16.3404 54.6511 16.4658 54.6669 16.8735 55.7224Z" fill="#FBFBFB"/>
<path d="M43.0554 25.0493C43.071 25.3486 42.8515 25.7267 42.538 26.0418C39.0575 29.5392 35.5927 33.0366 32.0966 36.5183C31.3597 37.243 30.5915 37.2272 29.8546 36.4868C28.1614 34.8011 26.4839 33.1154 24.8064 31.4297C24.1009 30.705 24.0695 29.8543 24.6809 29.2556C25.261 28.6885 26.1076 28.7515 26.7974 29.4289C27.9106 30.5317 29.008 31.6503 30.1211 32.7531C30.7639 33.399 31.2343 33.399 31.8771 32.7373C34.6991 29.9173 37.5054 27.0816 40.3274 24.2616C40.5312 24.0568 40.7507 23.852 41.0016 23.7102C41.8952 23.1588 43.024 23.8047 43.0554 25.0493Z" fill="url(#paint0_linear_1861_1143)"/>
<path d="M58.8124 10.697C58.7496 9.89357 58.4831 9.65726 57.6992 9.54698C56.5704 9.38944 55.4259 9.24765 54.2971 9.04285C46.9913 7.65648 40.2968 4.83649 34.3079 0.378074C33.6494 -0.110304 33.3515 -0.126058 32.6931 0.378074C30.6236 1.985 28.3817 3.30834 26.0613 4.4899C20.7779 7.18386 15.1809 8.8853 9.30174 9.54698C8.51785 9.6415 8.267 9.87781 8.18861 10.634C7.9848 12.7136 7.9848 14.7931 8.01616 16.8569C8.04751 18.1802 8.14158 19.4878 8.21997 20.8112C8.25132 21.4571 8.64327 21.851 9.17632 21.8352C9.72504 21.8194 10.1013 21.3783 10.0856 20.7009C10.0856 20.4016 10.0543 20.118 10.0386 19.8187C9.85046 17.1405 9.83478 14.4623 9.96021 11.7841C9.97589 11.4375 10.1013 11.3272 10.4305 11.2957C11.1204 11.2169 11.7945 11.1381 12.4687 11.0121C19.9627 9.6415 26.8766 6.85302 33.1007 2.41036C33.3672 2.22131 33.5554 2.17404 33.8532 2.3946C40.6731 7.24687 48.2455 10.1771 56.5234 11.2957C56.884 11.3429 57.0094 11.4532 57.0251 11.8313C57.2916 17.5973 56.884 23.3003 55.7552 28.9561C54.6891 34.2967 52.9802 39.4011 50.2523 44.143C46.4269 50.807 41.0494 55.7538 33.9943 58.7944C33.7121 58.9204 33.4613 58.9992 33.1164 58.8574C27.441 56.4155 22.7376 52.6975 19.069 47.7035C15.5415 42.9142 13.2839 37.5421 11.8415 31.7761C11.2615 29.4129 10.8538 27.0341 10.4776 24.6237C10.3835 24.025 9.92885 23.6942 9.44284 23.773C8.90979 23.8517 8.56488 24.3401 8.64327 24.9388C9.38013 30.3424 10.6814 35.6043 12.8606 40.6299C12.9233 40.7874 12.9704 40.8977 13.0174 41.008C13.0174 41.008 13.6445 42.4258 14.1775 43.3868C15.6042 46.0966 17.2818 48.633 19.2415 50.9803C19.2415 50.9803 20.2919 52.1619 21.1385 53.0126C21.1699 53.0284 21.1855 53.0599 21.2169 53.0914C24.1016 55.9902 27.394 58.3218 31.1096 60.0075C34.057 61.3308 32.9282 61.3308 35.8914 60.0075C39.2621 58.4793 42.2879 56.4155 44.9688 53.8791C45.2667 53.5798 47.0853 51.7523 47.8849 50.8228C49.8133 48.4754 51.4751 46.0335 52.8234 43.3711C52.8234 43.3711 53.6387 41.7484 53.9366 41.0395C53.9522 40.9922 53.9679 40.945 53.9993 40.8977C55.034 38.6133 55.8492 36.2502 56.5234 33.8241C57.6208 29.8856 58.3107 25.8683 58.6713 21.8037C59.0162 18.1015 59.1259 14.3992 58.8124 10.697Z" fill="#333333"/>
<path opacity="0.7" d="M2.21071 3.07177C2.28295 3.14239 2.3552 3.22713 2.42744 3.29775C3.19324 4.06046 3.17879 4.03221 2.45634 4.78079C2.08067 5.17627 1.86393 4.96441 1.60385 4.71017C1.12703 4.24407 0.664657 3.76385 0.173389 3.29775C-0.0577962 3.07177 -0.0577962 2.9164 0.173389 2.69041C1.18482 1.74409 0.823597 1.80059 1.77723 2.67629C1.92173 2.81753 2.06622 2.94465 2.21071 3.07177Z" fill="url(#paint1_linear_1861_1143)"/>
<path opacity="0.7" d="M0.245822 9.65473C0.865465 9.25141 1.31218 8.66084 1.83095 8.15669C2.04711 7.95503 2.16239 7.94063 2.37854 8.15669C3.19993 8.96333 3.21434 8.94893 2.37854 9.76997C2.04711 10.1013 1.70126 10.4038 1.39865 10.7639C1.11044 11.0952 0.894285 11.0664 0.62049 10.7495C0.433156 10.5334 0.217002 10.3605 0.000847637 10.1589C-0.0135626 9.92841 0.159361 9.81318 0.245822 9.65473Z" fill="url(#paint2_linear_1861_1143)"/>
<path opacity="0.7" d="M8.03926 2C8.40016 2.21492 8.71775 2.54447 8.96316 2.90267C9.10752 3.11759 8.78993 3.24655 8.66 3.38983C8.18362 3.87699 7.6928 4.34981 7.21641 4.83697C7.01431 5.05189 6.85552 5.05189 6.63898 4.8513C5.8017 4.09191 5.78726 4.10624 6.59567 3.30386C6.971 2.93133 7.3319 2.57313 7.70723 2.21492C7.79385 2.11463 7.86603 2.01433 8.03926 2Z" fill="url(#paint3_linear_1861_1143)"/>
<defs>
<linearGradient id="paint0_linear_1861_1143" x1="24.248" y1="37.0521" x2="43.0562" y2="37.0521" gradientUnits="userSpaceOnUse">
<stop stop-color="#F60093"/>
<stop offset="1" stop-color="#FD5B7A"/>
</linearGradient>
<linearGradient id="paint1_linear_1861_1143" x1="0" y1="5" x2="3" y2="5" gradientUnits="userSpaceOnUse">
<stop stop-color="#F60093"/>
<stop offset="1" stop-color="#FD5B7A"/>
</linearGradient>
<linearGradient id="paint2_linear_1861_1143" x1="0" y1="11" x2="3" y2="11" gradientUnits="userSpaceOnUse">
<stop stop-color="#F60093"/>
<stop offset="1" stop-color="#FD5B7A"/>
</linearGradient>
<linearGradient id="paint3_linear_1861_1143" x1="6" y1="5" x2="9" y2="5" gradientUnits="userSpaceOnUse">
<stop stop-color="#F60093"/>
<stop offset="1" stop-color="#FD5B7A"/>
</linearGradient>
</defs>
</svg>
