<svg width="24" height="19" viewBox="0 0 24 19" fill="none" xmlns="http://www.w3.org/2000/svg">
<path d="M23.8628 1.31758C23.761 1.12369 23.6081 0.961307 23.4207 0.847943C23.2333 0.73458 23.0186 0.674545 22.7996 0.674316H1.19754C0.978937 0.675219 0.764711 0.735698 0.577904 0.849248C0.391098 0.962798 0.238779 1.12512 0.137329 1.31877C0.0358788 1.51241 -0.0108648 1.73005 0.00212515 1.94827C0.0151151 2.1665 0.0873471 2.37705 0.211053 2.55729L11.0121 18.1587C11.1222 18.3186 11.2695 18.4494 11.4413 18.5397C11.6132 18.63 11.8044 18.6772 11.9985 18.6772C12.1927 18.6772 12.3839 18.63 12.5558 18.5397C12.7276 18.4494 12.8749 18.3186 12.985 18.1587L23.786 2.55729C23.911 2.37742 23.9842 2.16674 23.9977 1.94817C24.0113 1.72959 23.9646 1.51149 23.8628 1.31758ZM11.9985 15.3673L3.48736 3.07454H20.5097L11.9985 15.3673Z" fill="black"/>
</svg>
