<svg width="24" height="28" viewBox="0 0 24 28" fill="none" xmlns="http://www.w3.org/2000/svg">
<path d="M7.17342 12.25C6.92024 12.25 6.67743 12.3422 6.49841 12.5063C6.31939 12.6704 6.21881 12.8929 6.21881 13.125C6.21881 13.3571 6.31939 13.5796 6.49841 13.7437C6.67743 13.9078 6.92024 14 7.17342 14H16.7195C16.9726 14 17.2155 13.9078 17.3945 13.7437C17.5735 13.5796 17.6741 13.3571 17.6741 13.125C17.6741 12.8929 17.5735 12.6704 17.3945 12.5063C17.2155 12.3422 16.9726 12.25 16.7195 12.25H7.17342ZM6.21881 16.625C6.21881 16.3929 6.31939 16.1704 6.49841 16.0063C6.67743 15.8422 6.92024 15.75 7.17342 15.75H16.7195C16.9726 15.75 17.2155 15.8422 17.3945 16.0063C17.5735 16.1704 17.6741 16.3929 17.6741 16.625C17.6741 16.8571 17.5735 17.0796 17.3945 17.2437C17.2155 17.4078 16.9726 17.5 16.7195 17.5H7.17342C6.92024 17.5 6.67743 17.4078 6.49841 17.2437C6.31939 17.0796 6.21881 16.8571 6.21881 16.625ZM6.21881 20.125C6.21881 19.8929 6.31939 19.6704 6.49841 19.5063C6.67743 19.3422 6.92024 19.25 7.17342 19.25H10.9918C11.245 19.25 11.4878 19.3422 11.6668 19.5063C11.8459 19.6704 11.9464 19.8929 11.9464 20.125C11.9464 20.3571 11.8459 20.5796 11.6668 20.7437C11.4878 20.9078 11.245 21 10.9918 21H7.17342C6.92024 21 6.67743 20.9078 6.49841 20.7437C6.31939 20.5796 6.21881 20.3571 6.21881 20.125Z" fill="#4F4F4F"/>
<path d="M14.8098 0H4.30914C3.29644 0 2.32521 0.368749 1.60911 1.02513C0.893019 1.6815 0.490723 2.57174 0.490723 3.5V24.5C0.490723 25.4283 0.893019 26.3185 1.60911 26.9749C2.32521 27.6312 3.29644 28 4.30914 28H19.5828C20.5955 28 21.5668 27.6312 22.2829 26.9749C22.999 26.3185 23.4013 25.4283 23.4013 24.5V7.875L14.8098 0ZM14.8098 1.75V5.25C14.8098 5.94619 15.1115 6.61387 15.6486 7.10616C16.1857 7.59844 16.9141 7.875 17.6736 7.875H21.492V24.5C21.492 24.9641 21.2909 25.4092 20.9328 25.7374C20.5748 26.0656 20.0892 26.25 19.5828 26.25H4.30914C3.80279 26.25 3.31717 26.0656 2.95913 25.7374C2.60108 25.4092 2.39993 24.9641 2.39993 24.5V3.5C2.39993 3.03587 2.60108 2.59075 2.95913 2.26256C3.31717 1.93437 3.80279 1.75 4.30914 1.75H14.8098Z" fill="#4F4F4F"/>
</svg>
