<svg width="24" height="28" viewBox="0 0 24 28" fill="none" xmlns="http://www.w3.org/2000/svg">
<path d="M7.38625 12.25C7.13307 12.25 6.89026 12.3422 6.71124 12.5063C6.53222 12.6704 6.43164 12.8929 6.43164 13.125C6.43164 13.3571 6.53222 13.5796 6.71124 13.7437C6.89026 13.9078 7.13307 14 7.38625 14H16.9323C17.1855 14 17.4283 13.9078 17.6073 13.7437C17.7863 13.5796 17.8869 13.3571 17.8869 13.125C17.8869 12.8929 17.7863 12.6704 17.6073 12.5063C17.4283 12.3422 17.1855 12.25 16.9323 12.25H7.38625ZM6.43164 16.625C6.43164 16.3929 6.53222 16.1704 6.71124 16.0063C6.89026 15.8422 7.13307 15.75 7.38625 15.75H16.9323C17.1855 15.75 17.4283 15.8422 17.6073 16.0063C17.7863 16.1704 17.8869 16.3929 17.8869 16.625C17.8869 16.8571 17.7863 17.0796 17.6073 17.2437C17.4283 17.4078 17.1855 17.5 16.9323 17.5H7.38625C7.13307 17.5 6.89026 17.4078 6.71124 17.2437C6.53222 17.0796 6.43164 16.8571 6.43164 16.625ZM6.43164 20.125C6.43164 19.8929 6.53222 19.6704 6.71124 19.5063C6.89026 19.3422 7.13307 19.25 7.38625 19.25H11.2047C11.4578 19.25 11.7007 19.3422 11.8797 19.5063C12.0587 19.6704 12.1593 19.8929 12.1593 20.125C12.1593 20.3571 12.0587 20.5796 11.8797 20.7437C11.7007 20.9078 11.4578 21 11.2047 21H7.38625C7.13307 21 6.89026 20.9078 6.71124 20.7437C6.53222 20.5796 6.43164 20.3571 6.43164 20.125Z" fill="#4F4F4F"/>
<path d="M15.0227 0H4.52203C3.50933 0 2.5381 0.368749 1.822 1.02513C1.10591 1.6815 0.703613 2.57174 0.703613 3.5V24.5C0.703613 25.4283 1.10591 26.3185 1.822 26.9749C2.5381 27.6312 3.50933 28 4.52203 28H19.7957C20.8084 28 21.7797 27.6312 22.4958 26.9749C23.2118 26.3185 23.6141 25.4283 23.6141 24.5V7.875L15.0227 0ZM15.0227 1.75V5.25C15.0227 5.94619 15.3244 6.61387 15.8615 7.10616C16.3986 7.59844 17.127 7.875 17.8865 7.875H21.7049V24.5C21.7049 24.9641 21.5038 25.4092 21.1457 25.7374C20.7877 26.0656 20.3021 26.25 19.7957 26.25H4.52203C4.01568 26.25 3.53007 26.0656 3.17202 25.7374C2.81397 25.4092 2.61282 24.9641 2.61282 24.5V3.5C2.61282 3.03587 2.81397 2.59075 3.17202 2.26256C3.53007 1.93437 4.01568 1.75 4.52203 1.75H15.0227Z" fill="#4F4F4F"/>
</svg>
