<svg width="32" height="31" viewBox="0 0 32 31" fill="none" xmlns="http://www.w3.org/2000/svg">
<path d="M16.063 30.2378C24.385 30.2378 31.1313 23.4689 31.1313 15.1189C31.1313 6.76897 24.385 0 16.063 0C7.74096 0 0.994629 6.76897 0.994629 15.1189C0.994629 23.4689 7.74096 30.2378 16.063 30.2378Z" fill="url(#paint0_linear_1363_3030)"/>
<path d="M20.7389 9.40186C20.5333 9.40186 20.3324 9.46301 20.1615 9.57759C19.9906 9.69218 19.8575 9.85504 19.7788 10.0456C19.7002 10.2361 19.6796 10.4458 19.7197 10.6481C19.7598 10.8504 19.8587 11.0362 20.0041 11.182C20.1494 11.3278 20.3346 11.4272 20.5362 11.4674C20.7378 11.5076 20.9467 11.487 21.1366 11.4081C21.3265 11.3291 21.4888 11.1955 21.603 11.024C21.7171 10.8525 21.7781 10.6509 21.7781 10.4446C21.7781 10.1681 21.6686 9.90284 21.4737 9.70728C21.2788 9.51172 21.0145 9.40186 20.7389 9.40186Z" fill="white"/>
<path d="M16.1301 10.7339C15.2692 10.7339 14.4276 10.99 13.7118 11.47C12.996 11.9499 12.4381 12.632 12.1087 13.4301C11.7793 14.2281 11.693 15.1063 11.861 15.9535C12.0289 16.8008 12.4435 17.579 13.0522 18.1898C13.6609 18.8006 14.4366 19.2166 15.2809 19.3851C16.1252 19.5536 17.0004 19.4671 17.7957 19.1366C18.5911 18.806 19.2709 18.2462 19.7492 17.528C20.2275 16.8097 20.4827 15.9653 20.4827 15.1015C20.4827 14.5279 20.3701 13.96 20.1514 13.4301C19.9327 12.9002 19.6121 12.4187 19.2079 12.0131C18.8037 11.6076 18.3238 11.2858 17.7957 11.0663C17.2677 10.8469 16.7017 10.7339 16.1301 10.7339ZM16.1301 17.8964C15.5795 17.8947 15.0419 17.7293 14.5849 17.4212C14.128 17.1131 13.7723 16.676 13.5628 16.1651C13.3533 15.6543 13.2993 15.0926 13.4078 14.551C13.5162 14.0094 13.7821 13.5122 14.172 13.1222C14.5619 12.7321 15.0582 12.4668 15.5983 12.3597C16.1384 12.2525 16.698 12.3083 17.2064 12.5201C17.7149 12.7319 18.1494 13.0902 18.4551 13.5496C18.7608 14.009 18.924 14.549 18.924 15.1015C18.9217 15.8435 18.6264 16.5544 18.1026 17.0783C17.5789 17.6022 16.8696 17.8964 16.1301 17.8964Z" fill="white"/>
<path d="M19.5891 23.965H12.5362C11.8394 23.965 11.1493 23.8272 10.5054 23.5597C9.86158 23.2921 9.27661 22.8999 8.78383 22.4054C8.29106 21.911 7.90014 21.324 7.63345 20.678C7.36677 20.032 7.22949 19.3396 7.22949 18.6404V11.5638C7.22949 10.1516 7.78863 8.79733 8.78383 7.79878C9.77903 6.80024 11.1288 6.23926 12.5362 6.23926H19.5891C20.9966 6.23926 22.3463 6.80024 23.3415 7.79878C24.3368 8.79733 24.8958 10.1516 24.8958 11.5638V18.6404C24.8958 19.3396 24.7586 20.032 24.4919 20.678C24.2252 21.324 23.8343 21.911 23.3415 22.4054C22.8488 22.8999 22.2637 23.2921 21.6199 23.5597C20.9761 23.8272 20.286 23.965 19.5891 23.965ZM12.5362 7.90585C11.5693 7.90585 10.642 8.29124 9.95833 8.97724C9.27463 9.66325 8.89051 10.5937 8.89051 11.5638V18.6404C8.88827 19.1222 8.98094 19.5997 9.16315 20.0455C9.34536 20.4913 9.61354 20.8966 9.9523 21.238C10.2911 21.5795 10.6937 21.8505 11.1372 22.0354C11.5806 22.2203 12.056 22.3155 12.5362 22.3155H19.5891C20.0679 22.3155 20.542 22.2209 20.9843 22.037C21.4266 21.8532 21.8285 21.5838 22.167 21.2441C22.5056 20.9044 22.7741 20.5012 22.9573 20.0574C23.1406 19.6136 23.2349 19.1379 23.2349 18.6575V11.5638C23.2349 10.5937 22.8507 9.66325 22.167 8.97724C21.4833 8.29124 20.556 7.90585 19.5891 7.90585H12.5362Z" fill="white"/>
<defs>
<linearGradient id="paint0_linear_1363_3030" x1="0.994629" y1="30.2378" x2="31.1313" y2="30.2378" gradientUnits="userSpaceOnUse">
<stop stop-color="#F60093"/>
<stop offset="1" stop-color="#FD5B7A"/>
</linearGradient>
</defs>
</svg>
