<svg width="69" height="61" viewBox="0 0 69 61" fill="none" xmlns="http://www.w3.org/2000/svg">
<g clip-path="url(#clip0_1865_1144)">
<path d="M-0.000414081 36.1148C1.35021 34.3778 2.98784 32.916 4.54106 31.3682C5.18261 30.7319 6.00986 30.7835 6.65141 31.4198C8.00204 32.7612 9.33578 34.1199 10.6526 35.4957C11.1254 35.9772 11.2266 36.5791 10.9734 37.1982C10.7202 37.8345 10.1968 38.1269 9.53837 38.1441C8.72799 38.1613 7.91762 38.1785 7.10725 38.1441C6.65141 38.1269 6.567 38.2817 6.567 38.7116C6.58388 42.2543 6.567 45.7971 6.58388 49.357C6.60076 54.8946 10.5513 58.9016 15.9707 58.9188C26.5056 58.936 37.0405 58.9188 47.5753 58.9188C49.5675 58.9188 51.5765 58.9532 53.5687 58.9016C58.3803 58.7813 62.2971 54.8086 62.3815 49.8901C62.4491 45.9346 62.3984 41.9792 62.3984 38.0237C62.3984 37.7314 62.3815 37.439 62.4828 37.1466C62.6517 36.6479 63.0231 36.3899 63.5127 36.4415C64.0023 36.4931 64.34 36.7855 64.4075 37.3186C64.4244 37.439 64.4244 37.5422 64.4244 37.6626C64.4244 41.8072 64.475 45.9518 64.3906 50.0793C64.2893 55.4621 60.1699 60.0883 54.9362 60.8622C54.244 60.9654 53.5518 60.9998 52.8596 60.9998C40.6027 60.9998 28.3289 60.9998 16.072 60.9998C10.9059 60.9998 6.80336 58.0934 5.13196 53.278C4.67612 51.971 4.54106 50.6124 4.54106 49.2366C4.55794 45.7627 4.52418 42.2887 4.55794 38.7976C4.55794 38.2645 4.42288 38.1269 3.9164 38.1613C3.34238 38.2129 2.75148 38.1269 2.16058 38.1785C1.19826 38.2473 0.455422 37.9549 -0.0341797 37.0779C-0.000414081 36.7683 -0.000414081 36.4415 -0.000414081 36.1148Z" fill="#333333"/>
<path d="M31.3344 17.146C31.9253 17.06 32.4487 16.9568 32.9889 16.9052C33.276 16.8708 33.4279 16.6817 33.5967 16.5097C35.6902 14.36 38.2057 13.3281 41.1771 13.4657C45.3809 13.6549 49.399 16.6473 50.4458 21.0155C51.2899 24.5582 50.5808 27.7053 48.251 30.4742C47.6939 31.1277 47.9809 31.936 47.8458 32.6755C49.5679 31.3512 50.7496 29.6487 51.4756 27.6194C51.6613 27.0862 51.7795 26.5187 51.9314 25.9856C52.134 25.2633 52.6236 24.9365 53.2145 25.1085C53.7717 25.2633 54.0418 25.762 53.8899 26.4843C53.0457 30.2506 51.0535 33.2086 47.8458 35.2723C47.2043 35.685 46.7147 36.1322 46.3601 36.8373C45.229 39.1418 43.5238 40.9475 41.3459 42.2373C40.8226 42.5469 40.468 42.9425 40.1979 43.4928C38.2226 47.3622 35.1331 49.7355 30.9799 50.6986C30.3046 50.8534 29.7981 50.561 29.663 49.9935C29.528 49.4088 29.8319 48.9444 30.5072 48.7209C30.6422 48.6865 30.7604 48.6349 30.8955 48.6177C32.5162 48.2393 34.0019 47.5514 35.285 46.468C39.0668 43.2692 40.5356 39.159 39.2862 34.3436C38.0369 29.5111 34.7785 26.5875 29.8825 25.8136C22.6904 24.6786 16.3256 30.8009 16.8828 38.2131C17.2542 43.2004 20.8671 47.4826 25.6449 48.6005C25.78 48.6349 25.8982 48.6693 26.0332 48.7037C26.7085 48.91 27.0124 49.3744 26.8774 49.9591C26.7254 50.5438 26.2527 50.819 25.5605 50.6814C23.9567 50.3546 22.4541 49.7871 21.1035 48.8412C16.41 45.5909 14.2659 41.0679 14.9919 35.3239C15.5321 31.1621 17.6763 27.9289 21.1879 25.676C21.8125 25.2805 22.2684 24.8161 22.606 24.1282C23.7878 21.7722 25.5268 19.932 27.789 18.6078C28.1436 18.4014 28.4306 18.1779 28.6163 17.7651C31.0812 12.4854 36.6356 9.33827 42.207 10.009C47.9809 10.7141 52.6405 14.9791 53.873 20.6887C54.0418 21.4798 53.8054 22.0473 53.2145 22.2021C52.573 22.3741 52.0834 21.9957 51.8977 21.1874C50.986 17.146 48.6393 14.3256 44.8744 12.8122C39.9278 10.8861 34.272 12.623 31.3344 17.146Z" fill="#333333"/>
<path d="M34.5081 0.0172618C40.9742 0.0172618 47.4403 -0.0515287 53.9065 0.0344594C58.9544 0.10325 63.5972 4.47145 64.2894 9.57914C64.4751 10.9206 64.4244 12.2792 64.4244 13.6206C64.4413 16.441 64.4413 19.2442 64.4244 22.0646C64.4244 22.5462 64.5426 22.7009 65.0153 22.6665C65.792 22.6321 66.5854 22.6493 67.3789 22.6493C68.0711 22.6493 68.5945 22.9589 68.8646 23.6124C69.1347 24.2487 68.9997 24.8334 68.527 25.315C67.227 26.6736 65.9101 28.015 64.5764 29.3392C63.8673 30.0443 63.0063 30.0271 62.2972 29.3392C60.9635 28.015 59.6466 26.6564 58.3466 25.315C57.8739 24.8334 57.7726 24.2315 58.0259 23.5952C58.2791 22.9761 58.7856 22.6493 59.4609 22.6493C60.2713 22.6493 61.0817 22.6321 61.892 22.6493C62.2803 22.6665 62.4323 22.5977 62.4323 22.1334C62.4154 18.4703 62.466 14.8072 62.3985 11.1613C62.2972 6.13962 58.4142 2.13257 53.4506 2.08098C46.4274 2.01219 39.4041 2.06378 32.3809 2.06378C26.6745 2.06378 20.9681 2.02938 15.2786 2.09817C10.6865 2.14977 6.70215 6.2428 6.61774 10.9034C6.55021 14.9276 6.60086 18.9519 6.58397 22.9761C6.58397 23.3029 6.60086 23.6124 6.48268 23.922C6.29697 24.3691 5.94243 24.5927 5.46971 24.5411C5.01387 24.4895 4.67622 24.2143 4.5918 23.7328C4.57492 23.5952 4.55804 23.4576 4.55804 23.32C4.55804 19.141 4.50739 14.9448 4.5918 10.7658C4.6931 5.5721 8.9138 0.842748 13.9786 0.137645C14.7384 0.0344594 15.4981 6.41542e-05 16.2578 6.41542e-05C22.3356 6.41542e-05 28.4303 6.41542e-05 34.5081 6.41542e-05V0.0172618Z" fill="#333333"/>
<path d="M38.2898 37.353C38.2729 42.8907 33.7989 47.534 28.464 47.534C22.69 47.534 18.1992 43.0283 18.1992 37.2326C18.1992 31.6778 22.7745 27.0688 28.2782 27.0688C33.8327 27.086 38.3066 31.695 38.2898 37.353Z" fill="#333333"/>
<path d="M2.75195 36.0636C3.66362 35.1349 4.52465 34.275 5.36879 33.3979C5.60515 33.1572 5.70644 33.3291 5.84151 33.4839C6.66876 34.3266 7.49602 35.1521 8.39081 36.0636C6.48305 36.0636 4.69347 36.0636 2.75195 36.0636Z" fill="white"/>
<path opacity="0.3" d="M2.75195 36.0636C3.66362 35.1349 4.52465 34.275 5.36879 33.3979C5.60515 33.1572 5.70644 33.3291 5.84151 33.4839C6.66876 34.3266 7.49602 35.1521 8.39081 36.0636C6.48305 36.0636 4.69347 36.0636 2.75195 36.0636Z" fill="url(#paint0_linear_1865_1144)"/>
<path d="M24.9697 23.9733C28.4307 19.6567 32.6345 17.8337 37.8007 19.4159C42.3252 20.7917 45.0434 24.0765 45.7524 28.823C46.4109 33.1396 44.8577 36.7339 41.5317 39.6575C41.5824 38.4537 41.785 37.525 42.511 36.5791C44.8914 33.4148 45.1616 29.8721 43.5746 26.2606C42.1564 23.0274 39.6409 21.0153 36.1968 20.4306C32.9384 19.8802 30.0008 20.7401 27.6034 23.0962C26.8437 23.8529 25.9996 23.7497 24.9697 23.9733Z" fill="#FEFEFE"/>
<path d="M36.3486 16.9223C39.0668 14.7554 43.5914 15.1682 46.2757 17.765C49.2809 20.6542 49.2978 25.16 47.6432 27.6537C47.0017 24.8161 45.6848 22.4428 43.642 20.4822C41.6161 18.5389 39.1681 17.3695 36.3486 16.9223Z" fill="#FEFEFE"/>
<path opacity="0.3" d="M36.3486 16.9223C39.0668 14.7554 43.5914 15.1682 46.2757 17.765C49.2809 20.6542 49.2978 25.16 47.6432 27.6537C47.0017 24.8161 45.6848 22.4428 43.642 20.4822C41.6161 18.5389 39.1681 17.3695 36.3486 16.9223Z" fill="url(#paint1_linear_1865_1144)"/>
<path d="M41.4471 34.4126C39.8432 28.4967 36.1121 24.9195 30.2031 23.7157C32.2459 21.9272 36.8381 21.6176 39.8432 24.3864C42.9328 27.2584 43.186 31.919 41.4471 34.4126Z" fill="#FEFEFE"/>
<path opacity="0.3" d="M41.4471 34.4126C39.8432 28.4967 36.1121 24.9195 30.2031 23.7157C32.2459 21.9272 36.8381 21.6176 39.8432 24.3864C42.9328 27.2584 43.186 31.919 41.4471 34.4126Z" fill="url(#paint2_linear_1865_1144)"/>
<path d="M66.2145 24.7476C65.3028 25.6762 64.4587 26.5361 63.6145 27.4132C63.4794 27.5508 63.3782 27.568 63.2431 27.4132C62.399 26.5533 61.5379 25.6934 60.6094 24.7476C62.534 24.7476 64.3236 24.7476 66.2145 24.7476Z" fill="white"/>
<path opacity="0.3" d="M66.2145 24.7476C65.3028 25.6762 64.4587 26.5361 63.6145 27.4132C63.4794 27.5508 63.3782 27.568 63.2431 27.4132C62.399 26.5533 61.5379 25.6934 60.6094 24.7476C62.534 24.7476 64.3236 24.7476 66.2145 24.7476Z" fill="url(#paint3_linear_1865_1144)"/>
<path d="M28.2787 45.4707C23.6865 45.3847 20.158 41.7388 20.2256 37.147C20.2931 32.6585 24.0073 29.0298 28.4475 29.1158C32.8539 29.2017 36.3655 32.9336 36.2811 37.4394C36.1967 41.9108 32.5669 45.5395 28.2787 45.4707Z" fill="white"/>
<path opacity="0.8" d="M28.2787 45.4707C23.6865 45.3847 20.158 41.7388 20.2256 37.147C20.2931 32.6585 24.0073 29.0298 28.4475 29.1158C32.8539 29.2017 36.3655 32.9336 36.2811 37.4394C36.1967 41.9108 32.5669 45.5395 28.2787 45.4707Z" fill="url(#paint4_linear_1865_1144)"/>
<path d="M27.8229 41.0165C27.8229 40.0878 27.8229 39.1764 27.8229 38.2649C27.8229 37.9897 27.6709 37.9209 27.4684 37.8349C27.0632 37.6458 26.6411 37.4738 26.2528 37.2502C25.1385 36.6139 24.7502 35.5993 24.9191 34.3438C25.0879 33.1572 25.797 32.4349 26.9112 32.0909C27.3333 31.9534 27.9411 32.0393 27.9242 31.2826C27.9242 31.1279 28.1943 31.0591 28.38 31.0591C28.5826 31.0763 28.8359 31.1279 28.8359 31.3686C28.819 31.8846 29.1398 31.8674 29.4943 31.8846C29.9839 31.919 30.4735 32.0221 30.9124 32.2801C31.4527 32.5897 31.5709 33.0712 31.3176 33.6215C31.0475 34.2062 30.6254 34.1547 30.1358 33.9311C28.8696 33.398 28.9203 33.4152 28.8359 34.8082C28.7852 35.7884 28.9372 36.4075 29.967 36.8031C31.3514 37.3534 31.8241 38.5057 31.6553 40.105C31.5202 41.3605 30.693 42.3235 29.393 42.7019C29.0722 42.7879 28.7514 42.8051 28.8021 43.321C28.8359 43.5962 28.5489 43.6649 28.3125 43.6821C28.0593 43.6821 27.8229 43.579 27.8229 43.321C27.806 42.8567 27.5528 42.8739 27.2151 42.8223C26.4047 42.7191 25.645 42.4439 25.0372 41.8592C24.6827 41.5152 24.5307 41.1025 24.6827 40.621C24.8853 39.9159 25.3411 39.7439 25.9658 40.1222C26.5229 40.4834 27.0294 40.9649 27.8229 41.0165Z" fill="#333333"/>
<path d="M28.7178 41.0162C28.7178 40.2251 28.7178 39.5028 28.7178 38.7805C28.7178 38.4538 28.8022 38.3678 29.0892 38.5398C29.5788 38.8321 29.9164 39.2449 29.8658 39.864C29.7983 40.5003 29.41 40.8614 28.7178 41.0162Z" fill="#F6F6F6"/>
<path d="M27.9575 35.9261C27.6198 35.7369 27.4003 35.6337 27.1809 35.4961C26.7926 35.2382 26.6744 34.877 26.7757 34.4299C26.8939 33.9827 27.2484 33.7936 27.6367 33.656C27.8731 33.5872 27.9406 33.7248 27.9406 33.9483C27.9575 34.5675 27.9575 35.1866 27.9575 35.9261Z" fill="#FCFCFC"/>
</g>
<defs>
<linearGradient id="paint0_linear_1865_1144" x1="2.75195" y1="36.0636" x2="8.39081" y2="36.0636" gradientUnits="userSpaceOnUse">
<stop stop-color="#F60093"/>
<stop offset="1" stop-color="#FD5B7A"/>
</linearGradient>
<linearGradient id="paint1_linear_1865_1144" x1="36.3486" y1="27.6537" x2="48.746" y2="27.6537" gradientUnits="userSpaceOnUse">
<stop stop-color="#F60093"/>
<stop offset="1" stop-color="#FD5B7A"/>
</linearGradient>
<linearGradient id="paint2_linear_1865_1144" x1="30.2031" y1="34.4126" x2="42.5236" y2="34.4126" gradientUnits="userSpaceOnUse">
<stop stop-color="#F60093"/>
<stop offset="1" stop-color="#FD5B7A"/>
</linearGradient>
<linearGradient id="paint3_linear_1865_1144" x1="60.6094" y1="27.5229" x2="66.2145" y2="27.5229" gradientUnits="userSpaceOnUse">
<stop stop-color="#F60093"/>
<stop offset="1" stop-color="#FD5B7A"/>
</linearGradient>
<linearGradient id="paint4_linear_1865_1144" x1="20.2246" y1="45.4717" x2="36.2826" y2="45.4717" gradientUnits="userSpaceOnUse">
<stop stop-color="#F60093"/>
<stop offset="1" stop-color="#FD5B7A"/>
</linearGradient>
<clipPath id="clip0_1865_1144">
<rect width="69" height="61" fill="white"/>
</clipPath>
</defs>
</svg>
