<svg width="30" height="30" viewBox="0 0 30 30" fill="none" xmlns="http://www.w3.org/2000/svg">
<circle cx="14.0662" cy="15.8665" r="12.8431" fill="white"/>
<path d="M14.6778 0.577393C6.57566 0.577393 0 7.15306 0 15.2552C0 23.3574 6.57566 29.933 14.6778 29.933C22.78 29.933 29.3556 23.3574 29.3556 15.2552C29.3556 7.15306 22.78 0.577393 14.6778 0.577393ZM21.4883 10.5583C21.2682 12.8774 20.3141 18.5137 19.8297 21.1117C19.6243 22.2125 19.2133 22.5795 18.8316 22.6235C17.9803 22.6969 17.3345 22.0657 16.5126 21.5226C15.2209 20.6713 14.487 20.1429 13.2394 19.321C11.7863 18.3669 12.7257 17.8385 13.5623 16.9872C13.7825 16.767 17.54 13.3471 17.6134 13.0389C17.6236 12.9922 17.6222 12.9437 17.6094 12.8977C17.5966 12.8516 17.5728 12.8094 17.54 12.7747C17.4519 12.7013 17.3345 12.7306 17.2318 12.7453C17.0997 12.7747 15.0448 14.1397 11.0377 16.8404C10.4506 17.2367 9.92221 17.4422 9.45252 17.4275C8.92412 17.4129 7.92602 17.134 7.17746 16.8845C6.25275 16.5909 5.53354 16.4294 5.59225 15.9157C5.62161 15.6515 5.98855 15.3873 6.67841 15.1084C10.9643 13.2444 13.8118 12.0114 15.2356 11.4243C19.316 9.72168 20.1527 9.42812 20.7104 9.42812C20.8278 9.42812 21.1067 9.45748 21.2828 9.60425C21.4296 9.72168 21.4737 9.88313 21.4883 10.0006C21.4737 10.0886 21.503 10.3528 21.4883 10.5583Z" fill="url(#paint0_linear_2120_2782)"/>
<defs>
<linearGradient id="paint0_linear_2120_2782" x1="0" y1="29.933" x2="29.3556" y2="29.933" gradientUnits="userSpaceOnUse">
<stop stop-color="#F60093"/>
<stop offset="1" stop-color="#FD5B7A"/>
</linearGradient>
</defs>
</svg>
