<svg width="24" height="19" viewBox="0 0 24 19" fill="none" xmlns="http://www.w3.org/2000/svg">
<path d="M11.0119 1.19015C11.122 1.03024 11.2693 0.899502 11.4412 0.809181C11.613 0.718861 11.8042 0.671667 11.9984 0.671667C12.1925 0.671667 12.3837 0.718861 12.5556 0.809181C12.7274 0.899502 12.8748 1.03024 12.9849 1.19015L23.7857 16.7914C23.9107 16.9713 23.984 17.1821 23.9977 17.4008C24.0113 17.6195 23.9648 17.8377 23.8631 18.0318C23.7614 18.2259 23.6085 18.3884 23.4209 18.5017C23.2334 18.615 23.0183 18.6747 22.7992 18.6743H1.19753C0.978923 18.6734 0.764699 18.6129 0.577896 18.4994C0.391092 18.3858 0.238776 18.2235 0.137327 18.0299C0.0358782 17.8362 -0.0108646 17.6186 0.00212512 17.4004C0.0151149 17.1822 0.0873458 16.9716 0.21105 16.7914L11.0119 1.19015Z" fill="#4F4F4F"/>
</svg>
