<svg width="34" height="40" viewBox="0 0 34 40" fill="none" xmlns="http://www.w3.org/2000/svg">
<path d="M16.9711 39.28C26.2307 39.28 33.7371 31.7736 33.7371 22.514C33.7371 13.2544 26.2307 5.74804 16.9711 5.74804C7.71147 5.74804 0.205078 13.2544 0.205078 22.514C0.205078 31.7736 7.71147 39.28 16.9711 39.28Z" fill="#F9B462"/>
<path d="M33.6561 22.514C33.6617 26.1114 32.4996 29.6133 30.3444 32.4936C27.9733 35.6699 24.549 37.8984 20.6847 38.78C16.8203 39.6617 12.7683 39.139 9.25424 37.3054C5.74018 35.4718 2.99359 32.4472 1.50631 28.7732C0.0190367 25.0991 -0.111785 21.0156 1.13728 17.2539C2.38634 13.4922 4.9337 10.298 8.32319 8.24326C11.7127 6.18853 15.7229 5.40749 19.6358 6.04C23.5487 6.67252 27.1086 8.67728 29.6781 11.6953C32.2475 14.7133 33.6588 18.5474 33.659 22.5111L33.6561 22.514Z" fill="#1A97F1"/>
<path d="M33.6558 22.514C33.6615 26.1114 32.4994 29.6134 30.3441 32.4936C27.341 35.4312 23.3402 37.128 19.1408 37.2449C14.9413 37.3619 10.8523 35.8905 7.69029 33.1245C4.52827 30.3586 2.52596 26.5016 2.0832 22.324C1.64045 18.1463 2.78985 13.9554 5.30186 10.5881C7.64969 8.29145 10.6231 6.73876 13.8495 6.12456C17.0759 5.51037 20.4118 5.86198 23.4392 7.13535C26.4666 8.40872 29.0509 10.5472 30.8683 13.2829C32.6858 16.0185 33.6554 19.2297 33.6558 22.514Z" fill="#53BAFF"/>
<path fill-rule="evenodd" clip-rule="evenodd" d="M19.5897 6.32317C15.7442 5.70153 11.8028 6.46914 8.47162 8.48855C5.1404 10.508 2.63683 13.6473 1.40924 17.3443C0.181653 21.0413 0.310227 25.0546 1.77193 28.6655C3.23364 32.2764 5.93301 35.249 9.38666 37.0511C12.8403 38.8531 16.8227 39.3669 20.6206 38.5004C24.4185 37.6339 27.7839 35.4437 30.1142 32.322L30.3441 32.4936L30.1144 32.3217C32.2324 29.4912 33.3745 26.0497 33.3689 22.5145C33.3689 22.5006 33.3699 22.4868 33.3719 22.4732C33.3626 18.5911 31.9765 14.8377 29.4594 11.8812C26.9341 8.91511 23.4353 6.94482 19.5897 6.32317ZM30.5738 32.6654C28.162 35.8962 24.6789 38.1629 20.7482 39.0597C16.8174 39.9565 12.6957 39.4248 9.12128 37.5597C5.54681 35.6946 2.753 32.618 1.24016 28.8808C-0.272681 25.1436 -0.405752 20.9899 0.864781 17.1635C2.13531 13.3371 4.72647 10.088 8.17423 7.99796C11.622 5.90791 15.7012 5.11344 19.6813 5.75683C23.6614 6.40022 27.2825 8.43945 29.8962 11.5093C32.5099 14.5792 33.9453 18.4793 33.9456 22.5111C33.9456 22.5249 33.9446 22.5386 33.9426 22.5521C33.9401 26.198 32.7585 29.7458 30.5738 32.6654Z" fill="#1D1D1B"/>
<g opacity="0.51">
<path opacity="0.51" d="M7.34578 15.4192C7.06632 15.4196 6.79244 15.341 6.55574 15.1924C6.31903 15.0439 6.12914 14.8315 6.00796 14.5796C5.88677 14.3278 5.83924 14.0469 5.87083 13.7692C5.90243 13.4915 6.01187 13.2285 6.18653 13.0103C7.43451 11.4406 9.02142 10.1736 10.8285 9.30406C12.6355 8.43455 14.6158 7.98512 16.6212 7.98941C17.0153 7.98941 17.3933 8.14599 17.672 8.42469C17.9507 8.70339 18.1073 9.08138 18.1073 9.47552C18.1073 9.86967 17.9507 10.2477 17.672 10.5264C17.3933 10.8051 17.0153 10.9616 16.6212 10.9616C15.0619 10.9583 13.5221 11.3078 12.117 11.984C10.712 12.6602 9.47817 13.6456 8.50798 14.8663C8.36827 15.0399 8.19123 15.1797 7.99002 15.2755C7.7888 15.3712 7.5686 15.4203 7.34578 15.4192Z" fill="#F3F2F8"/>
</g>
<g opacity="0.51">
<path opacity="0.51" d="M22.5236 12.1624C22.2918 12.1619 22.0633 12.1071 21.8565 12.0023C21.646 11.897 21.4296 11.7962 21.2131 11.7058C20.8501 11.5523 20.5628 11.2608 20.4147 10.8955C20.2665 10.5302 20.2695 10.121 20.423 9.75793C20.5766 9.39485 20.868 9.10763 21.2333 8.95945C21.5986 8.81128 22.0078 8.81429 22.3709 8.96781C22.6481 9.08492 22.9253 9.21389 23.1936 9.34879C23.4976 9.49588 23.7422 9.74233 23.887 10.0474C24.0318 10.3524 24.0682 10.6977 23.99 11.0262C23.9119 11.3547 23.7239 11.6467 23.4573 11.8539C23.1906 12.061 22.8612 12.1709 22.5236 12.1654V12.1624Z" fill="#F3F2F8"/>
</g>
<path fill-rule="evenodd" clip-rule="evenodd" d="M9.52023 20.7991C9.27953 20.7991 9.04824 20.8925 8.87509 21.0597C8.70195 21.2269 8.60048 21.4548 8.59207 21.6954C8.58654 21.8537 8.45371 21.9776 8.29539 21.972C8.13706 21.9665 8.0132 21.8337 8.01873 21.6753C8.03233 21.2862 8.19647 20.9175 8.47657 20.647C8.75668 20.3766 9.13085 20.2254 9.52023 20.2254C9.90961 20.2254 10.2838 20.3766 10.5639 20.647C10.844 20.9175 11.0081 21.2862 11.0217 21.6753C11.0273 21.8337 10.9034 21.9665 10.7451 21.972C10.5868 21.9776 10.4539 21.8537 10.4484 21.6954C10.44 21.4548 10.3385 21.2269 10.1654 21.0597C9.99223 20.8925 9.76093 20.7991 9.52023 20.7991Z" fill="#1D1D1B"/>
<path fill-rule="evenodd" clip-rule="evenodd" d="M19.9685 20.7991C19.7278 20.7991 19.4965 20.8925 19.3233 21.0597C19.1502 21.2269 19.0487 21.4548 19.0403 21.6954C19.0348 21.8537 18.902 21.9776 18.7436 21.972C18.5853 21.9665 18.4614 21.8337 18.467 21.6753C18.4806 21.2862 18.6447 20.9175 18.9248 20.647C19.2049 20.3766 19.5791 20.2254 19.9685 20.2254C20.3579 20.2254 20.732 20.3766 21.0121 20.647C21.2922 20.9175 21.4564 21.2862 21.47 21.6753C21.4755 21.8337 21.3516 21.9665 21.1933 21.972C21.035 21.9776 20.9022 21.8537 20.8966 21.6954C20.8882 21.4548 20.7868 21.2269 20.6136 21.0597C20.4405 20.8925 20.2092 20.7991 19.9685 20.7991Z" fill="#1D1D1B"/>
<path d="M15.8736 22.5348C15.9343 22.5342 15.9944 22.5481 16.0487 22.5753C16.103 22.6024 16.1502 22.6421 16.1862 22.691C16.2222 22.7399 16.2461 22.7967 16.256 22.8566C16.2658 22.9166 16.2612 22.978 16.2427 23.0358C16.1376 23.3502 15.9364 23.6235 15.6674 23.8172C15.3985 24.0108 15.0754 24.1151 14.744 24.1151C14.4126 24.1151 14.0895 24.0108 13.8206 23.8172C13.5516 23.6235 13.3504 23.3502 13.2453 23.0358C13.2271 22.978 13.2228 22.9167 13.2328 22.8569C13.2427 22.797 13.2667 22.7404 13.3026 22.6916C13.3386 22.6428 13.3856 22.6031 13.4398 22.5759C13.4939 22.5486 13.5538 22.5346 13.6144 22.5348H15.8736Z" fill="#1D1D1B"/>
<path fill-rule="evenodd" clip-rule="evenodd" d="M21.1432 1.67411C21.2383 1.91206 21.1225 2.18207 20.8846 2.27719C19.8224 2.70181 19.0286 3.79571 18.4879 4.87677C18.2234 5.4056 18.0315 5.90689 17.9058 6.27636C17.8431 6.46068 17.7973 6.61112 17.7673 6.71445C17.7524 6.76608 17.7414 6.80587 17.7344 6.83215C17.7308 6.84529 17.7283 6.85504 17.7267 6.8612L17.725 6.86772L17.7248 6.86869L17.7247 6.86887C17.6624 7.11735 17.4106 7.26837 17.162 7.20619C16.9134 7.14399 16.7623 6.89205 16.8245 6.64346L17.2746 6.75607C16.8245 6.64346 16.8246 6.64332 16.8246 6.64318L16.8249 6.6418L16.8257 6.63872L16.8284 6.62834C16.8307 6.61958 16.8339 6.60715 16.8382 6.59128C16.8467 6.55953 16.8593 6.51396 16.876 6.45626C16.9094 6.34092 16.9595 6.1768 17.0273 5.9775C17.1626 5.57973 17.3699 5.03759 17.6579 4.46166C18.2224 3.3332 19.1475 1.97223 20.5401 1.4155C20.7781 1.32038 21.0481 1.43616 21.1432 1.67411Z" fill="#82CBAC"/>
<path fill-rule="evenodd" clip-rule="evenodd" d="M15.791 1.13389C15.9053 0.904537 16.1839 0.811257 16.4132 0.925548C17.1525 1.29391 17.8019 1.93115 18.2519 2.44656C18.4808 2.70879 18.6665 2.94924 18.7952 3.12458C18.8597 3.2124 18.9102 3.28428 18.945 3.33488C18.9624 3.36019 18.9759 3.38021 18.9853 3.39427C18.99 3.4013 18.9937 3.40684 18.9963 3.41081L18.9995 3.41558L19.0005 3.41707L19.0009 3.41778C19.001 3.41787 19.001 3.41794 18.6287 3.66042L19.001 3.41794C19.1409 3.63267 19.0802 3.92012 18.8655 4.05997C18.6508 4.19978 18.3635 4.13918 18.2236 3.92463C18.2235 3.92459 18.2235 3.92445 18.2234 3.92441L18.2218 3.92189C18.2202 3.91949 18.2176 3.91554 18.214 3.91014C18.2067 3.89934 18.1955 3.88273 18.1805 3.86096C18.1506 3.81739 18.1056 3.75328 18.0472 3.67382C17.9303 3.5146 17.761 3.29532 17.5528 3.05687C17.1285 2.57092 16.575 2.04298 15.9993 1.75612C15.77 1.64183 15.6767 1.36325 15.791 1.13389Z" fill="#82CBAC"/>
<path fill-rule="evenodd" clip-rule="evenodd" d="M16.3421 1.08896C16.2733 1.05457 16.1937 1.04892 16.1208 1.07323C16.0479 1.09754 15.9876 1.14983 15.9532 1.2186C15.9188 1.28736 15.9131 1.36697 15.9375 1.43991C15.9617 1.51275 16.0139 1.57299 16.0826 1.60739C16.5685 1.84847 17.0215 2.24102 17.3902 2.62207C17.7605 3.00486 18.0543 3.38521 18.2205 3.61085L18.0803 3.71416L18.2296 3.8038C17.6883 4.70568 17.2738 5.67783 16.9978 6.69283C16.9891 6.72927 16.9874 6.76706 16.9931 6.80411C16.9988 6.84175 17.0119 6.87791 17.0315 6.9105C17.0512 6.94309 17.0772 6.97148 17.1078 6.99404C17.1385 7.01661 17.1733 7.03291 17.2103 7.04202L17.2124 7.04255C17.2338 7.04812 17.2559 7.05074 17.2781 7.05034L17.2797 7.05031L17.2797 7.05031C17.3436 7.04973 17.4056 7.02789 17.4558 6.98824C17.506 6.9486 17.5416 6.89338 17.5569 6.8313L17.5569 6.8313C17.5774 6.74732 17.8199 5.83176 18.324 4.81598C18.84 3.77599 19.652 2.58612 20.82 2.11612C20.8287 2.11262 20.8375 2.10986 20.8465 2.10783C20.9001 2.07578 20.9422 2.02707 20.9661 1.96867C20.9945 1.89916 20.9948 1.82135 20.9669 1.75161C20.9391 1.68188 20.8853 1.62568 20.8168 1.59484C20.7498 1.56467 20.6739 1.56109 20.6045 1.58471C19.8811 1.89745 19.2509 2.39198 18.7751 3.0203C18.7424 3.06346 18.6915 3.08897 18.6373 3.08932C18.5832 3.08966 18.5319 3.0648 18.4987 3.02205C18.0507 2.44589 17.2509 1.54336 16.3421 1.08896ZM20.9092 2.45614C19.8878 2.88723 19.138 3.95928 18.636 4.97083C18.3841 5.47848 18.1995 5.96078 18.0774 6.31891C18.0164 6.49783 17.9711 6.64534 17.9409 6.749C17.9139 6.84165 17.8998 6.89622 17.8969 6.9075C17.8965 6.90916 17.8963 6.90988 17.8963 6.90966C17.8959 6.91145 17.8955 6.91324 17.8951 6.91502C17.8611 7.05212 17.7826 7.17404 17.6717 7.2616C17.5611 7.34899 17.4246 7.39719 17.2837 7.39866C17.2834 7.39866 17.2831 7.39866 17.2829 7.39866L17.2813 7.22449L17.2845 7.39864C17.2842 7.39865 17.2839 7.39865 17.2837 7.39866C17.2305 7.39956 17.1774 7.39329 17.1259 7.38002C17.1263 7.3801 17.1266 7.38019 17.127 7.38028L17.1686 7.21115L17.1249 7.37974C17.1252 7.37983 17.1256 7.37993 17.1259 7.38002C17.0449 7.35991 16.9686 7.32411 16.9014 7.27463C16.8338 7.22493 16.7767 7.16242 16.7334 7.09066C16.69 7.0189 16.6612 6.93929 16.6486 6.85639C16.6361 6.77349 16.6399 6.68892 16.6601 6.60753C16.6604 6.60623 16.6607 6.60494 16.6611 6.60364C16.9352 5.59461 17.3422 4.62665 17.8712 3.72513C17.7039 3.50327 17.4491 3.18398 17.1398 2.86429C16.7828 2.49531 16.3621 2.13486 15.9275 1.91935L15.927 1.9191C15.7756 1.8434 15.6605 1.71066 15.607 1.55007C15.5534 1.38948 15.5659 1.21421 15.6416 1.0628C15.7173 0.911398 15.85 0.796268 16.0106 0.742738C16.1712 0.689209 16.3465 0.701668 16.4979 0.777369C17.3885 1.22266 18.1616 2.04987 18.6362 2.63504C19.1308 2.04006 19.7596 1.56933 20.4722 1.26238C20.4755 1.26095 20.4789 1.25963 20.4823 1.25841C20.6379 1.20256 20.8091 1.20931 20.9599 1.27721C21.1106 1.34511 21.2292 1.46887 21.2905 1.62243C21.3518 1.77598 21.3511 1.94734 21.2886 2.1004C21.2261 2.25347 21.1066 2.3763 20.9553 2.44301C20.9404 2.44957 20.9249 2.45394 20.9092 2.45614Z" fill="#1D1D1B"/>
<path d="M24.435 29.5184C24.9098 29.5184 25.2948 29.1334 25.2948 28.6586C25.2948 28.1837 24.9098 27.7988 24.435 27.7988C23.9601 27.7988 23.5752 28.1837 23.5752 28.6586C23.5752 29.1334 23.9601 29.5184 24.435 29.5184Z" fill="#1A97F1"/>
<path d="M28.078 28.7831C28.8918 28.7831 29.5515 28.1234 29.5515 27.3096C29.5515 26.4958 28.8918 25.8361 28.078 25.8361C27.2642 25.8361 26.6045 26.4958 26.6045 27.3096C26.6045 28.1234 27.2642 28.7831 28.078 28.7831Z" fill="#1A97F1"/>
<path d="M27.0126 32.547C27.6004 32.547 28.077 32.0704 28.077 31.4826C28.077 30.8948 27.6004 30.4182 27.0126 30.4182C26.4248 30.4182 25.9482 30.8948 25.9482 31.4826C25.9482 32.0704 26.4248 32.547 27.0126 32.547Z" fill="#1A97F1"/>
<path d="M15.6245 1.73368C16.0551 1.73368 16.4042 1.38457 16.4042 0.95393C16.4042 0.523289 16.0551 0.174185 15.6245 0.174185C15.1938 0.174185 14.8447 0.523289 14.8447 0.95393C14.8447 1.38457 15.1938 1.73368 15.6245 1.73368Z" fill="#B7E1CF"/>
<path d="M21.4809 2.50007C21.9116 2.50007 22.2607 2.15097 22.2607 1.72033C22.2607 1.28969 21.9116 0.940584 21.4809 0.940584C21.0503 0.940584 20.7012 1.28969 20.7012 1.72033C20.7012 2.15097 21.0503 2.50007 21.4809 2.50007Z" fill="#B7E1CF"/>
<path fill-rule="evenodd" clip-rule="evenodd" d="M15.6239 0.348365C15.2894 0.348365 15.0183 0.619485 15.0183 0.953928C15.0183 1.28837 15.2894 1.55949 15.6239 1.55949C15.9583 1.55949 16.2294 1.28837 16.2294 0.953928C16.2294 0.619485 15.9583 0.348365 15.6239 0.348365ZM14.6699 0.953928C14.6699 0.427088 15.097 0 15.6239 0C16.1507 0 16.5778 0.427088 16.5778 0.953928C16.5778 1.48077 16.1507 1.90786 15.6239 1.90786C15.097 1.90786 14.6699 1.48077 14.6699 0.953928Z" fill="#1D1D1B"/>
<path fill-rule="evenodd" clip-rule="evenodd" d="M21.4803 1.11476C21.1459 1.11476 20.8747 1.38588 20.8747 1.72032C20.8747 2.05477 21.1459 2.32589 21.4803 2.32589C21.8147 2.32589 22.0859 2.05477 22.0859 1.72032C22.0859 1.38588 21.8147 1.11476 21.4803 1.11476ZM20.5264 1.72032C20.5264 1.19348 20.9535 0.766396 21.4803 0.766396C22.0071 0.766396 22.4342 1.19348 22.4342 1.72032C22.4342 2.24716 22.0071 2.67425 21.4803 2.67425C20.9535 2.67425 20.5264 2.24716 20.5264 1.72032Z" fill="#1D1D1B"/>
</svg>
