<svg width="31" height="31" viewBox="0 0 31 31" fill="none" xmlns="http://www.w3.org/2000/svg">
<path d="M15.9316 30.2378C24.2537 30.2378 31 23.4689 31 15.1189C31 6.76897 24.2537 0 15.9316 0C7.60962 0 0.863281 6.76897 0.863281 15.1189C0.863281 23.4689 7.60962 30.2378 15.9316 30.2378Z" fill="url(#paint0_linear_1363_3035)"/>
<path d="M18.6144 7.56543C18.4311 7.90429 18.2677 8.25423 18.1252 8.61338C16.7247 8.38478 15.298 8.38478 13.8974 8.61338C13.7549 8.25423 13.5915 7.90429 13.4082 7.56543C12.0889 7.79807 10.8064 8.21472 9.59582 8.80391C7.43111 12.028 6.4494 15.9423 6.82654 19.8454C8.23725 20.9399 9.82056 21.7747 11.5066 22.3129C11.8906 21.7895 12.2332 21.2352 12.5313 20.6552C11.9812 20.4459 11.4524 20.181 10.9528 19.8645C11.0898 19.7704 11.2194 19.6653 11.3405 19.5501C12.7975 20.2745 14.394 20.6506 16.0113 20.6506C17.6286 20.6506 19.2251 20.2745 20.6822 19.5501C20.8114 19.6644 20.9406 19.7692 21.0699 19.8645C20.5675 20.1785 20.0393 20.4463 19.4914 20.6648C19.7771 21.2578 20.1106 21.8251 20.4883 22.3605C22.1723 21.8242 23.7529 20.9892 25.1592 19.8931C25.5454 15.9892 24.5629 12.0718 22.3899 8.85154C21.193 8.25016 19.9231 7.81758 18.6144 7.56543ZM12.9467 17.6162C12.4847 17.582 12.0536 17.3644 11.7438 17.0091C11.434 16.6538 11.2696 16.1885 11.2851 15.7108C11.2672 15.2325 11.4308 14.7658 11.7411 14.4101C12.0514 14.0543 12.4839 13.8374 12.9467 13.8055C13.4094 13.8374 13.8419 14.0543 14.1522 14.4101C14.4625 14.7658 14.6261 15.2325 14.6082 15.7108C14.6261 16.1892 14.4625 16.6558 14.1522 17.0116C13.8419 17.3674 13.4094 17.5843 12.9467 17.6162ZM19.076 17.6162C18.6141 17.582 18.1829 17.3644 17.8731 17.0091C17.5633 16.6538 17.3989 16.1885 17.4144 15.7108C17.3966 15.2325 17.5602 14.7658 17.8704 14.4101C18.1807 14.0543 18.6132 13.8374 19.076 13.8055C19.5396 13.835 19.9735 14.0512 20.2843 14.4075C20.595 14.7639 20.7578 15.2319 20.7376 15.7108C20.7578 16.1898 20.595 16.6578 20.2843 17.0141C19.9735 17.3705 19.5396 17.5867 19.076 17.6162Z" fill="white"/>
<defs>
<linearGradient id="paint0_linear_1363_3035" x1="0.863281" y1="30.2378" x2="31" y2="30.2378" gradientUnits="userSpaceOnUse">
<stop stop-color="#F60093"/>
<stop offset="1" stop-color="#FD5B7A"/>
</linearGradient>
</defs>
</svg>
