<svg width="40" height="70" viewBox="0 0 40 70" fill="none" xmlns="http://www.w3.org/2000/svg">
<g clip-path="url(#clip0_1873_1048)">
<path d="M8.32008 0.963867C7.39365 1.50932 7.08484 2.36387 7.08484 3.38205C7.08484 5.05478 7.08484 6.7275 7.08484 8.40023C7.08484 8.65478 7.08484 8.89114 7.04851 9.14569C6.99401 9.49114 6.81236 9.67296 6.46722 9.70932C6.39456 9.70932 6.34006 9.7275 6.2674 9.7275C4.16023 9.90932 3.56077 10.5639 3.5426 12.673C3.5426 12.8366 3.5426 12.9821 3.5426 13.1457C3.52444 14.1093 3.50627 14.1275 2.63434 14.473C1.21745 15.0002 0.345512 16.2366 0.291016 17.7457C0.291016 17.8548 0.291016 17.9639 0.291016 18.0911C0.291016 34.0911 0.291016 50.0911 0.291016 66.1093C0.291016 66.873 0.418173 67.5639 0.763313 68.1821C1.43543 69.0911 2.54351 69.6366 3.88775 69.6366C12.8977 69.6366 21.9077 69.6366 30.9359 69.6366C32.7161 69.6366 34.0785 68.673 34.5871 67.1639C34.6234 67.0184 34.6416 66.873 34.6598 66.7093C34.6779 66.4366 34.6779 66.1639 34.6779 65.8912C34.6779 50.0184 34.6779 34.1457 34.6779 18.2911C34.6779 17.9093 34.6961 17.5093 34.6053 17.1457C34.2965 15.8002 33.5154 14.8548 32.1893 14.4366C31.608 14.2548 31.39 13.9275 31.4082 13.3457C31.4263 12.873 31.4263 12.4002 31.39 11.9275C31.2265 10.4911 30.4636 9.78205 29.0285 9.7275C27.9749 9.69114 27.8841 9.60023 27.8841 8.5275C27.8841 6.90932 27.8659 5.30932 27.8841 3.69114C27.9023 2.50932 27.648 1.47296 26.5217 0.854776C26.4127 0.782049 26.3037 0.69114 26.3219 0.527504C26.6125 0.527504 26.885 0.527504 27.1757 0.527504C26.9213 0.309322 26.6307 0.109322 26.2492 -0.0361328C20.3455 0.00023083 14.46 0.00023083 8.57439 0.00023083C8.19292 0.145685 7.90228 0.345685 7.64796 0.563867C7.97494 0.563867 8.30191 0.563867 8.64705 0.563867C8.64705 0.782049 8.4654 0.872958 8.32008 0.963867ZM4.79601 12.8911C4.83234 12.4002 4.79601 11.8911 4.81418 11.4002C4.81418 10.8002 5.08666 10.4911 5.72244 10.473C6.86686 10.4366 6.86686 10.4366 6.86686 11.5821C6.86686 11.7457 6.86686 11.8911 6.86686 12.0548C6.86686 13.5275 6.86686 13.5093 5.39547 13.5275C4.88684 13.5093 4.75968 13.3457 4.79601 12.8911ZM27.9568 11.5639C27.9568 10.4184 27.9568 10.4366 29.1194 10.473C29.7188 10.4911 29.9913 10.7821 30.0094 11.3457C30.0276 11.9275 30.0094 12.5275 30.0094 13.1093C30.0094 13.4002 29.9186 13.5275 29.628 13.5093C29.6098 13.5093 29.5916 13.5093 29.5553 13.5093C27.9568 13.5821 27.9568 13.5821 27.9568 11.982C27.9568 11.8366 27.9568 11.6911 27.9568 11.5639ZM30.6452 14.982C32.4799 14.982 33.3155 15.8184 33.3155 17.6366C33.3155 25.6366 33.3155 33.6366 33.3155 41.6366C33.3155 49.6002 33.3155 57.5457 33.3155 65.5093C33.3155 67.3457 32.4981 68.1821 30.6816 68.1821C21.8351 68.1821 12.9704 68.1821 4.12389 68.1821C2.32553 68.1821 1.48993 67.3639 1.48993 65.5821C1.48993 49.6002 1.48993 33.6184 1.48993 17.6366C1.48993 15.8184 2.32553 15.0002 4.16022 15.0002C12.9886 14.982 21.8169 14.982 30.6452 14.982ZM25.341 1.49114C26.2492 1.49114 26.4672 1.69114 26.4672 2.60023C26.4672 6.03659 26.4491 9.49114 26.4854 12.9275C26.4854 13.4366 26.3037 13.5093 25.8678 13.5093C23.034 13.4911 20.2184 13.5093 17.3846 13.5093C14.5871 13.5093 11.7715 13.4911 8.97403 13.5275C8.4654 13.5275 8.33825 13.4002 8.33825 12.8911C8.35641 9.45478 8.33825 6.03659 8.33825 2.60023C8.33825 1.69114 8.53806 1.49114 9.46449 1.49114C14.7506 1.49114 20.0367 1.49114 25.341 1.49114Z" fill="black"/>
<path d="M6.83015 2.81814C6.88465 4.49086 6.84832 6.16359 6.84832 7.8545C6.84832 8.96359 6.84832 8.96359 5.72207 8.98177C4.25068 8.99996 3.34242 9.87268 3.30609 11.3454C3.28792 11.9272 3.28792 12.5272 3.30609 13.109C3.30609 13.4 3.23342 13.5272 2.90645 13.6181C1.03542 14.0909 0 15.4545 0 17.4181C0 33.5272 0 49.6545 0 65.7636C0 66.7272 0.27248 67.5454 0.762943 68.2C0.417802 67.5818 0.290645 66.8909 0.290645 66.1272C0.290645 50.1272 0.290645 34.1272 0.290645 18.109C0.290645 18 0.290645 17.8909 0.290645 17.7636C0.345141 16.2545 1.21708 15.0181 2.63397 14.4909C3.52407 14.1636 3.54223 14.1272 3.54223 13.1636C3.54223 13 3.54223 12.8545 3.54223 12.6909C3.5604 10.5818 4.15985 9.92723 6.26703 9.74541C6.33969 9.74541 6.39419 9.72723 6.46685 9.72723C6.81199 9.69086 6.99364 9.49086 7.04814 9.16359C7.08447 8.90905 7.08447 8.6545 7.08447 8.39996C7.08447 6.72723 7.08447 5.03632 7.08447 3.36359C7.08447 2.34541 7.39328 1.49086 8.31971 0.94541C8.46503 0.854501 8.64669 0.763592 8.62852 0.54541C8.30154 0.54541 7.97457 0.54541 7.62943 0.54541C7.04814 1.10905 6.81199 1.8545 6.83015 2.81814Z" fill="black"/>
<path d="M26.5036 0.891122C27.6298 1.5093 27.8841 2.54567 27.866 3.72749C27.8478 5.34567 27.8478 6.94567 27.866 8.56385C27.866 9.63657 27.9568 9.72748 29.0104 9.76385C30.4454 9.81839 31.2084 10.5275 31.3719 11.9638C31.4264 12.4366 31.4082 12.9093 31.39 13.382C31.3719 13.9638 31.5899 14.2911 32.1711 14.4729C33.4972 14.8911 34.2783 15.8366 34.5871 17.182C34.678 17.5638 34.6598 17.9457 34.6598 18.3275C34.6598 34.2002 34.6598 50.0729 34.6598 65.9275C34.6598 66.2002 34.6598 66.4729 34.6416 66.7457C34.6235 66.8911 34.6053 67.0547 34.569 67.2002C34.7143 66.7638 34.8051 66.2911 34.8051 65.782C34.8051 49.6729 34.8051 33.5457 34.8051 17.4366C34.8051 15.4729 33.7697 14.1275 31.8805 13.6366C31.5717 13.5638 31.4809 13.4184 31.4809 13.1275C31.499 12.5093 31.499 11.9093 31.4809 11.2911C31.4264 9.9093 30.5181 9.01839 29.1375 9.00021C28.9196 9.00021 28.6834 8.98203 28.4654 9.00021C28.0295 9.05476 27.9386 8.89112 27.9386 8.47294C27.9568 6.60021 27.9023 4.7093 27.9568 2.83658C27.9931 1.87294 27.7388 1.1093 27.1575 0.582031C26.8669 0.582031 26.5944 0.582031 26.3038 0.582031C26.2856 0.727486 26.3946 0.818395 26.5036 0.891122Z" fill="black"/>
<path d="M39.2736 40.2547C39.7641 40.2365 39.9821 39.9274 39.9821 39.4365C39.9821 38.7819 39.9821 38.1274 39.9821 37.4728C39.9821 36.8183 39.9821 36.1638 39.9821 35.5092C39.9821 35.0547 39.7278 34.7638 39.2918 34.7456C38.8195 34.7092 38.5107 35.0183 38.5107 35.491C38.4925 36.8183 38.4925 38.1637 38.5107 39.491C38.5289 39.9456 38.7832 40.2728 39.2736 40.2547Z" fill="#020202"/>
<path d="M39.273 42.8543C38.8007 42.8361 38.5282 43.1271 38.5282 43.5452C38.4919 44.8907 38.4919 46.2543 38.5282 47.5998C38.5282 48.0725 38.8189 48.3634 39.3093 48.3271C39.7635 48.3089 39.9815 48.018 39.9815 47.5634C39.9815 46.9089 39.9815 46.2543 39.9815 45.5998C39.9815 44.9271 39.9815 44.2543 39.9815 43.5634C39.9815 43.1271 39.7453 42.8543 39.273 42.8543Z" fill="#020202"/>
<path d="M39.9814 52.5457C39.9814 52.2548 39.9814 51.9639 39.9814 51.673C39.9633 51.2002 39.6908 50.9457 39.2548 50.9457C38.837 50.9275 38.5464 51.2002 38.5282 51.6002C38.4919 52.2548 38.4919 52.9093 38.5282 53.5639C38.5646 53.9639 38.8552 54.2002 39.273 54.182C39.6908 54.1639 39.9451 53.9275 39.9633 53.4911C39.9996 53.182 39.9814 52.8548 39.9814 52.5457Z" fill="#030303"/>
<path opacity="0.3" d="M8.3375 2.60004C8.3375 6.01823 8.35567 9.43641 8.31934 12.8546C8.31934 13.3637 8.44649 13.491 8.95512 13.491C11.7526 13.4728 14.5682 13.4728 17.3657 13.4728C20.1995 13.4728 23.0151 13.4728 25.8489 13.4728C26.2848 13.4728 26.4665 13.4 26.4665 12.891C26.4483 9.45459 26.4483 6.00004 26.4483 2.56368C26.4483 1.67277 26.2303 1.45459 25.3221 1.45459C20.0178 1.45459 14.7317 1.45459 9.42742 1.45459C8.53732 1.49095 8.3375 1.69095 8.3375 2.60004ZM12.3157 4.50914C15.7126 4.50914 19.1095 4.50914 22.4883 4.50914C23.0332 4.50914 23.4874 4.65459 23.4874 5.25459C23.4874 5.85459 23.0332 6.00004 22.4883 6.00004C20.7989 5.98186 19.0914 6.00004 17.402 6.00004C15.7126 6.00004 14.0051 6.00004 12.3157 6.00004C11.7707 6.00004 11.3166 5.87277 11.3166 5.25459C11.3166 4.65459 11.7707 4.50914 12.3157 4.50914ZM12.3157 8.98186C15.7126 8.98186 19.1095 8.98186 22.4883 8.98186C23.0332 8.98186 23.4874 9.1455 23.4692 9.7455C23.4692 10.3455 23.0151 10.491 22.4701 10.491C20.7807 10.4728 19.0732 10.491 17.3838 10.491C15.6945 10.491 13.9869 10.491 12.2975 10.491C11.7526 10.491 11.2984 10.3273 11.3166 9.72732C11.3166 9.10914 11.7707 8.98186 12.3157 8.98186Z" fill="url(#paint0_linear_1873_1048)"/>
<path d="M8.02932 34.8362C11.1356 34.8362 14.2419 34.8362 17.33 34.8362C20.5089 34.8362 23.6696 34.8362 26.8486 34.8362C28.7378 34.8362 29.8822 33.6726 29.9004 31.7817C29.9004 28.4544 29.9004 25.1089 29.9004 21.7817C29.9004 19.8908 28.7741 18.7089 26.8667 18.7089C20.5452 18.6908 14.2237 18.6908 7.90216 18.7089C6.01297 18.7089 4.88672 19.8908 4.88672 21.7999C4.88672 25.0908 4.88672 28.3817 4.88672 31.6544C4.90488 33.7089 6.01297 34.8362 8.02932 34.8362ZM6.39444 21.9089C6.39444 20.6726 6.84857 20.218 8.06565 20.218C14.2963 20.218 20.5271 20.218 26.7578 20.218C27.9748 20.218 28.429 20.6726 28.429 21.9089C28.429 25.1817 28.429 28.4362 28.429 31.7089C28.429 32.8908 27.9748 33.3635 26.7941 33.3635C23.6515 33.3635 20.4907 33.3635 17.3481 33.3635C14.26 33.3635 11.1901 33.3635 8.10198 33.3635C6.83041 33.3635 6.39444 32.9089 6.39444 31.6362C6.39444 28.3817 6.39444 25.1453 6.39444 21.9089Z" fill="black"/>
<path d="M17.5295 45.1818C17.8383 45.1818 18.1652 45.1999 18.5104 45.1818C19.6366 45.1454 20.3996 44.4545 20.4904 43.3454C20.5449 42.5999 20.5449 41.8545 20.4904 41.109C20.3996 40.0363 19.6366 39.3272 18.5649 39.309C17.8564 39.2909 17.1662 39.2909 16.4577 39.309C15.3678 39.3272 14.623 40 14.4959 41.0727C14.4595 41.4363 14.4959 41.7999 14.4595 42.1636C14.3142 44.1999 14.7683 45.3818 17.5295 45.1818ZM16.7847 40.7818C17.2933 40.8363 17.8201 40.8 18.3469 40.7818C18.8555 40.7636 19.0372 41 19.019 41.4727C19.0009 41.9272 18.9827 42.3818 19.019 42.8363C19.0735 43.4727 18.8374 43.7818 18.1652 43.6909C17.9473 43.6545 17.7111 43.6909 17.4931 43.6909C15.8401 43.6727 15.9309 43.9272 15.9309 42.1272C15.9309 41.9636 15.9491 41.8181 15.9309 41.6545C15.8764 41.0181 16.1126 40.7272 16.7847 40.7818Z" fill="black"/>
<path d="M17.5116 48.9271C17.1665 48.9271 16.8395 48.9271 16.4944 48.9271C15.2591 48.9635 14.5144 49.6726 14.4599 50.909C14.4235 51.5635 14.4235 52.2181 14.4599 52.8726C14.5325 54.0544 15.3136 54.7817 16.4944 54.7999C17.1302 54.8181 17.766 54.8181 18.4017 54.7999C19.6915 54.7817 20.4726 54.0181 20.5089 52.7271C20.5271 52.4544 20.4907 52.1817 20.5089 51.909C20.6542 49.7817 20.0366 48.7453 17.5116 48.9271ZM18.1838 53.3271C17.9294 53.309 17.6933 53.3271 17.439 53.3271C15.8949 53.3271 15.9313 53.5453 15.9313 51.8362C15.9313 50.4181 15.9313 50.4181 17.3845 50.4181C19.2192 50.4181 19.0194 50.2544 19.0194 52.0544C19.0194 52.2181 19.0012 52.3635 19.0194 52.5271C19.0739 53.1453 18.8014 53.3999 18.1838 53.3271Z" fill="black"/>
<path d="M18.4919 58.5453C17.8198 58.509 17.1295 58.509 16.4574 58.5453C15.2767 58.5999 14.5319 59.3272 14.4592 60.509C14.4411 60.8181 14.4592 61.1453 14.4592 61.4544C14.4592 63.9635 14.9497 64.4544 17.4929 64.4544C17.7653 64.4544 18.0378 64.4544 18.3103 64.4544C19.7635 64.4363 20.5083 63.6726 20.5265 62.1999C20.5265 61.6544 20.5446 61.109 20.5265 60.5635C20.4538 59.3635 19.709 58.5999 18.4919 58.5453ZM19.0187 61.5272C19.0187 62.9635 19.0187 62.9635 17.5837 62.9635C15.8035 62.9635 15.9488 63.109 15.9488 61.309C15.9488 61.1817 15.9488 61.0363 15.9488 60.909C15.9488 60.109 16.0396 60.0181 16.8571 60.0181C17.075 60.0181 17.3112 60.0181 17.5292 60.0181C19.1459 59.9999 19.0187 59.9453 19.0187 61.5272Z" fill="black"/>
<path d="M29.9 60.5275C29.8636 59.4184 29.1733 58.6366 28.0471 58.5639C27.266 58.5093 26.4667 58.5093 25.6674 58.5639C24.5957 58.6366 23.9236 59.3639 23.8691 60.4366C23.8327 61.182 23.8327 61.9275 23.8872 62.6729C23.9417 63.582 24.5412 64.2366 25.4313 64.4002C25.9218 64.4729 26.4304 64.4366 26.9208 64.4729C28.81 64.6002 30.0816 64.1457 29.8818 61.4911C29.9 61.1639 29.9181 60.8366 29.9 60.5275ZM26.9935 62.982C25.1951 62.9638 25.3586 63.1457 25.3586 61.3275C25.3586 61.2002 25.3586 61.0548 25.3586 60.9275C25.3586 60.1093 25.4313 60.0366 26.2487 60.0366C26.4667 60.0366 26.7029 60.0366 26.9208 60.0366C28.6102 60.0184 28.4104 59.982 28.4104 61.5457C28.4104 62.9638 28.5921 62.982 26.9935 62.982Z" fill="black"/>
<path d="M7.9932 54.8729C10.3365 54.8729 10.9723 54.0548 10.9723 51.9093C10.9723 49.6729 10.3729 48.782 7.90237 48.9457C7.59356 48.9457 7.21209 48.9275 6.81246 48.9457C5.68621 49.0002 4.94143 49.7638 4.88694 50.9093C4.86877 51.182 4.9051 51.4548 4.88694 51.7275C4.72345 54.2184 5.55905 54.8729 7.9932 54.8729ZM6.39465 51.7639C6.39465 50.4184 6.39465 50.4184 7.77522 50.4184C9.64624 50.4366 9.46459 50.2002 9.46459 52.1275C9.46459 52.2911 9.44642 52.4366 9.46459 52.6002C9.50092 53.1639 9.24661 53.382 8.68348 53.3275C8.42917 53.3093 8.19302 53.3275 7.93871 53.3275C6.23117 53.3275 6.39465 53.5093 6.39465 51.7639Z" fill="black"/>
<path d="M26.8663 48.927C26.5393 48.927 26.176 48.9089 25.8127 48.927C24.6502 48.9816 23.9235 49.6907 23.869 50.8543C23.8327 51.527 23.8327 52.218 23.869 52.8907C23.9235 54.0361 24.6865 54.7816 25.8309 54.818C26.503 54.8361 27.1933 54.8361 27.8654 54.818C29.0643 54.7816 29.8454 53.9998 29.8818 52.818C29.8999 52.527 29.8636 52.2361 29.8818 51.927C30.0634 49.5998 29.2641 48.7634 26.8663 48.927ZM27.6838 53.327C27.4113 53.3089 27.1388 53.327 26.8663 53.327C25.2678 53.3089 25.3404 53.5634 25.3404 51.7998C25.3404 50.418 25.3404 50.418 26.7573 50.418C28.6647 50.418 28.3922 50.2543 28.4104 52.0907C28.4104 52.2725 28.3922 52.4543 28.4104 52.6361C28.4649 53.1634 28.2106 53.3634 27.6838 53.327Z" fill="black"/>
<path d="M7.97425 45.1816C8.28306 45.1816 8.61003 45.1998 8.95517 45.1816C10.1178 45.1453 10.8625 44.4544 10.9352 43.2907C10.9715 42.5453 10.9715 41.7998 10.917 41.0544C10.8444 40.0544 10.0814 39.3453 9.08233 39.3271C8.33755 39.3089 7.59278 39.3089 6.848 39.3271C5.75808 39.3635 4.99514 40.1271 4.92247 41.218C4.90431 41.5271 4.94064 41.8544 4.92247 42.1635C4.74082 44.4544 5.4856 45.3635 7.97425 45.1816ZM7.77443 40.7998C9.57279 40.818 9.4638 40.5089 9.4638 42.3635C9.4638 43.9816 9.42747 43.6726 7.93792 43.6907C6.21221 43.6726 6.39386 43.8907 6.39386 42.1271C6.3757 40.6544 6.33937 40.7817 7.77443 40.7998Z" fill="black"/>
<path d="M27.9018 39.309C27.2296 39.2909 26.5394 39.2909 25.8672 39.309C24.7228 39.3272 23.9599 40.0545 23.8872 41.2C23.8691 41.509 23.8872 41.8363 23.8691 42.1454C23.7237 44.4181 24.3595 45.3636 26.9027 45.1818C27.2115 45.1818 27.5385 45.1818 27.8473 45.1818C29.137 45.1454 29.8818 44.3818 29.8999 43.0727C29.8999 42.4909 29.9181 41.8909 29.8999 41.309C29.8636 40.109 29.1007 39.3272 27.9018 39.309ZM27.7564 43.6909C27.4658 43.6727 27.1751 43.6909 26.8845 43.6909C25.286 43.6727 25.3768 43.9454 25.3586 42.1636C25.3586 40.6 25.3768 40.8 26.7029 40.8C28.6647 40.8181 28.3922 40.5454 28.4286 42.5272C28.4286 42.6909 28.4104 42.8363 28.4286 43C28.4467 43.4909 28.2651 43.7272 27.7564 43.6909Z" fill="black"/>
<path d="M9.1739 58.5635C8.7561 58.509 8.32013 58.5635 7.88416 58.5271C5.83148 58.3817 4.7234 58.9817 4.90505 61.509C4.90505 61.7999 4.90505 62.0908 4.90505 62.3999C4.92322 63.5817 5.64983 64.3817 6.81241 64.4544C7.55719 64.509 8.30196 64.509 9.04674 64.4544C10.173 64.3817 10.8633 63.6544 10.9178 62.509C10.9541 61.7999 10.9541 61.109 10.8996 60.3999C10.8633 59.3635 10.1912 58.6726 9.1739 58.5635ZM8.61077 62.9817C8.39279 62.9635 8.15664 62.9817 7.93866 62.9817C6.21295 62.9999 6.39461 63.0362 6.39461 61.4544C6.39461 60.0362 6.39461 60.0362 7.77517 60.0362C9.60987 60.0362 9.44638 59.8362 9.46454 61.709C9.46454 61.8362 9.44638 61.9817 9.46454 62.109C9.51904 62.7271 9.28289 63.0544 8.61077 62.9817Z" fill="black"/>
<path d="M12.2983 10.473C13.9877 10.4548 15.6952 10.473 17.3846 10.473C19.074 10.473 20.7815 10.473 22.4709 10.473C23.0158 10.473 23.47 10.3275 23.47 9.72751C23.47 9.1275 23.034 8.96387 22.489 8.96387C19.0921 8.96387 15.6952 8.96387 12.3165 8.96387C11.7715 8.96387 11.3174 9.10932 11.3174 9.70932C11.3174 10.3093 11.7533 10.473 12.2983 10.473Z" fill="black"/>
<path d="M12.3165 6.00005C14.0058 5.98187 15.7134 6.00005 17.4028 6.00005C19.0921 6.00005 20.7997 6.00005 22.489 6.00005C23.034 6.00005 23.4881 5.8546 23.4881 5.2546C23.4881 4.6546 23.034 4.49096 22.489 4.50915C19.0921 4.50915 15.6952 4.50915 12.3165 4.50915C11.7715 4.50915 11.3174 4.6546 11.3174 5.27278C11.3174 5.87278 11.7715 6.01823 12.3165 6.00005Z" fill="#010101"/>
<path d="M8.10207 33.3637C11.1902 33.3637 14.2601 33.3637 17.3482 33.3637C20.4908 33.3637 23.6516 33.3637 26.7942 33.3637C27.9749 33.3637 28.4291 32.891 28.4291 31.7092C28.4291 28.4364 28.4291 25.1819 28.4291 21.9092C28.4291 20.6728 27.9749 20.2183 26.7578 20.2183C20.5271 20.2183 14.2964 20.2183 8.06574 20.2183C6.84866 20.2183 6.39453 20.6728 6.39453 21.9092C6.39453 25.1455 6.39453 28.4001 6.39453 31.6364C6.39453 32.9092 6.8305 33.3455 8.10207 33.3637Z" fill="url(#paint1_linear_1873_1048)"/>
<path opacity="0.3" d="M19.0188 52.0543C19.0188 50.2543 19.2004 50.4179 17.3839 50.4179C15.9307 50.4179 15.9488 50.4179 15.9307 51.8361C15.9125 53.5452 15.8943 53.327 17.4384 53.327C17.6927 53.327 17.9289 53.3088 18.1832 53.327C18.8008 53.3816 19.0733 53.1452 19.0188 52.5088C19.0006 52.3634 19.0188 52.1997 19.0188 52.0543Z" fill="url(#paint2_linear_1873_1048)"/>
<path opacity="0.3" d="M17.511 60.018C17.293 60.018 17.0568 60.018 16.8389 60.018C16.0214 60.018 15.9488 60.1089 15.9306 60.9089C15.9306 61.0361 15.9306 61.1816 15.9306 61.3089C15.9306 63.1089 15.7853 62.9634 17.5655 62.9634C19.0005 62.9634 19.0005 62.9634 19.0005 61.527C19.0187 59.9452 19.1459 59.9998 17.511 60.018Z" fill="url(#paint3_linear_1873_1048)"/>
<path opacity="0.3" d="M26.9206 60.0182C26.7026 60.0182 26.4664 60.0182 26.2485 60.0182C25.4492 60.0182 25.3765 60.091 25.3584 60.9091C25.3584 61.0364 25.3584 61.1819 25.3584 61.3091C25.3584 63.1273 25.1949 62.9455 26.9932 62.9637C28.5918 62.9819 28.4283 62.9637 28.4101 61.5091C28.4101 59.9637 28.5918 60.0001 26.9206 60.0182Z" fill="url(#paint4_linear_1873_1048)"/>
<path opacity="0.3" d="M7.93792 53.3273C8.19224 53.3273 8.42838 53.3091 8.6827 53.3273C9.22766 53.3819 9.50014 53.1455 9.46381 52.6C9.44564 52.4364 9.46381 52.291 9.46381 52.1273C9.44564 50.1819 9.64546 50.4182 7.77443 50.4182C6.39387 50.4182 6.39387 50.4182 6.39387 51.7637C6.39387 53.5091 6.23038 53.3273 7.93792 53.3273Z" fill="url(#paint5_linear_1873_1048)"/>
<path opacity="0.3" d="M28.4109 42.5274C28.3927 40.5274 28.6471 40.8001 26.6852 40.8001C25.341 40.8001 25.3228 40.6001 25.341 42.1637C25.341 43.9456 25.2502 43.6728 26.8669 43.691C27.1575 43.691 27.4482 43.6728 27.7388 43.691C28.2474 43.7274 28.4472 43.491 28.4109 43.0001C28.4109 42.8547 28.4109 42.691 28.4109 42.5274Z" fill="url(#paint6_linear_1873_1048)"/>
</g>
<defs>
<linearGradient id="paint0_linear_1873_1048" x1="8.31934" y1="13.491" x2="26.4665" y2="13.491" gradientUnits="userSpaceOnUse">
<stop stop-color="#F60093"/>
<stop offset="1" stop-color="#FD5B7A"/>
</linearGradient>
<linearGradient id="paint1_linear_1873_1048" x1="6.39453" y1="33.3637" x2="28.4291" y2="33.3637" gradientUnits="userSpaceOnUse">
<stop stop-color="#F60093"/>
<stop offset="1" stop-color="#FD5B7A"/>
</linearGradient>
<linearGradient id="paint2_linear_1873_1048" x1="15.9268" y1="53.336" x2="19.0256" y2="53.336" gradientUnits="userSpaceOnUse">
<stop stop-color="#F60093"/>
<stop offset="1" stop-color="#FD5B7A"/>
</linearGradient>
<linearGradient id="paint3_linear_1873_1048" x1="15.9277" y1="62.9662" x2="19.0101" y2="62.9662" gradientUnits="userSpaceOnUse">
<stop stop-color="#F60093"/>
<stop offset="1" stop-color="#FD5B7A"/>
</linearGradient>
<linearGradient id="paint4_linear_1873_1048" x1="25.3545" y1="62.9667" x2="28.4232" y2="62.9667" gradientUnits="userSpaceOnUse">
<stop stop-color="#F60093"/>
<stop offset="1" stop-color="#FD5B7A"/>
</linearGradient>
<linearGradient id="paint5_linear_1873_1048" x1="6.38965" y1="53.335" x2="9.46702" y2="53.335" gradientUnits="userSpaceOnUse">
<stop stop-color="#F60093"/>
<stop offset="1" stop-color="#FD5B7A"/>
</linearGradient>
<linearGradient id="paint6_linear_1873_1048" x1="25.3379" y1="43.6963" x2="28.4151" y2="43.6963" gradientUnits="userSpaceOnUse">
<stop stop-color="#F60093"/>
<stop offset="1" stop-color="#FD5B7A"/>
</linearGradient>
<clipPath id="clip0_1873_1048">
<rect width="40" height="70" fill="white"/>
</clipPath>
</defs>
</svg>
