<svg width="73" height="73" viewBox="0 0 73 73" fill="none" xmlns="http://www.w3.org/2000/svg">
<g clip-path="url(#clip0_1850_988)">
<path d="M65.7248 72.9999C65.2296 72.5998 64.6963 72.2379 64.2583 71.7997C59.8208 67.3801 55.3833 62.9414 50.9457 58.5028C49.7649 57.3217 49.7078 56.5978 50.5839 55.3214C49.3269 54.0641 48.0699 52.8068 46.7749 51.5114C43.042 54.4641 38.7378 56.4072 33.9384 57.3217C33.9384 59.4934 33.9384 61.6079 33.9384 63.7225C33.9384 63.9511 33.9384 64.1987 33.9384 64.4273C33.9003 65.0941 33.4623 65.5132 32.8529 65.4941C32.2625 65.4751 31.8244 65.056 31.8244 64.3702C31.8054 63.2081 31.8244 62.0461 31.8244 60.884C31.8244 59.8172 31.8244 58.7504 31.8244 57.6265C31.1388 57.6836 30.5103 57.7217 29.7866 57.7789C29.7866 58.0646 29.7866 58.3123 29.7866 58.5599C29.7866 62.027 29.7866 65.4941 29.7866 68.9613C29.7866 69.247 29.7866 69.5328 29.6914 69.7995C29.539 70.3138 29.1391 70.5805 28.6058 70.5234C28.0916 70.4662 27.7297 70.1614 27.6535 69.609C27.6154 69.3804 27.6345 69.1327 27.6345 68.9041C27.6345 65.4561 27.6345 62.008 27.6345 58.5599C27.6345 58.3123 27.6345 58.0456 27.6345 57.7408C26.9298 57.6836 26.3013 57.6265 25.5776 57.5693C25.5586 57.8741 25.5395 58.1218 25.5395 58.3694C25.5395 60.2935 25.5395 62.2175 25.5395 64.1416C25.5395 65.0369 25.1586 65.5132 24.454 65.4941C23.7874 65.4751 23.4065 64.9988 23.4065 64.1606C23.4065 62.1223 23.4065 60.0649 23.4065 58.0265C23.4065 57.7789 23.4065 57.5122 23.4065 57.2455C20.6068 56.674 17.9786 55.8167 15.5218 54.4641C6.47535 49.4349 1.29507 41.7958 0.133316 31.4707C0.114271 31.2421 0.0571354 31.0135 0 30.7849C0 29.5085 0 28.2131 0 26.9367C0.247587 25.4508 0.399948 23.9268 0.723715 22.46C3.23767 11.1442 12.6079 2.26685 24.054 0.41899C33.0433 -1.02882 41.0232 1.29529 47.9557 7.21988C48.0509 7.29608 48.1461 7.37228 48.2223 7.44848C48.6984 7.92473 48.7555 8.53433 48.3556 8.97249C47.9747 9.42969 47.3462 9.46779 46.832 9.04869C46.013 8.40098 45.2322 7.69613 44.3752 7.08653C28.6439 -4.24829 6.13253 4.80052 2.59014 23.8697C0.133316 37.1666 7.78946 50.0255 20.683 54.2927C35.9191 59.3219 52.5455 49.2825 55.1738 33.4519C56.4498 25.7937 54.7548 18.8404 50.1078 12.6111C49.9744 12.4396 49.8411 12.2682 49.7459 12.0777C49.4793 11.5633 49.5935 11.087 50.0316 10.7441C50.4887 10.3822 50.9648 10.4203 51.3838 10.8013C51.5933 10.9918 51.7456 11.2394 51.917 11.4681C54.6976 15.1638 56.5069 19.2786 57.2687 23.8125C57.3449 24.3078 57.5544 24.4221 58.0115 24.4031C60.0112 24.384 62.011 24.4031 63.9917 24.4031C64.1821 24.4031 64.3726 24.4031 64.563 24.4031C65.1915 24.4412 65.6295 24.8603 65.6486 25.4127C65.6867 25.9842 65.2486 26.4986 64.5821 26.5176C63.1346 26.5557 61.6872 26.5367 60.2398 26.5367C59.4018 26.5367 58.5447 26.5367 57.7068 26.5367C57.7068 27.2606 57.7068 27.8892 57.7068 28.5941C58.0305 28.5941 58.2781 28.5941 58.5257 28.5941C62.1443 28.5941 65.7438 28.5941 69.3624 28.5941C69.8957 28.5941 70.3718 28.6893 70.6194 29.2037C71.0003 29.9657 70.4289 30.7277 69.4576 30.7277C67.0389 30.7277 64.6201 30.7277 62.1824 30.7277C60.6968 30.7277 59.1923 30.7277 57.6306 30.7277C57.5544 31.3945 57.4973 32.0231 57.4211 32.747C57.6877 32.7661 57.9543 32.7851 58.2019 32.7851C60.1064 32.7851 62.011 32.7851 63.8964 32.7851C64.1059 32.7851 64.3345 32.7851 64.544 32.8042C65.2105 32.8804 65.6486 33.3185 65.6295 33.9091C65.6105 34.4996 65.1534 34.9187 64.4868 34.9378C63.2679 34.9568 62.0681 34.9378 60.8492 34.9378C59.7636 34.9378 58.659 34.9378 57.5734 34.9378C57.2306 34.9378 57.0211 34.9759 56.9259 35.395C55.9356 39.586 54.1072 43.396 51.479 46.7107C52.755 47.9871 54.012 49.2254 55.3261 50.5208C55.288 50.5589 55.3833 50.5017 55.4594 50.4255C56.4117 49.7397 57.3259 49.7778 58.1638 50.616C61.4586 53.8736 64.7154 57.1693 67.9911 60.4459C68.5434 60.9983 68.5625 61.627 68.1054 62.0842C67.6293 62.5414 67.0389 62.5223 66.4675 61.9508C65.3248 60.8269 64.2011 59.6648 63.0965 58.579C61.5539 60.122 60.0684 61.6079 58.6019 63.0748C61.0968 65.5704 63.6298 68.085 66.1247 70.5805C67.5721 69.1327 69.0386 67.6468 70.6575 66.0276C70.448 65.8561 70.1051 65.6275 69.8385 65.3418C69.3814 64.8464 69.3814 64.2368 69.8195 63.8177C70.2385 63.3986 70.8479 63.4177 71.3621 63.8558C71.3812 63.8749 71.4002 63.8939 71.4193 63.913C73.0381 65.3989 73.7809 66.3895 71.5335 68.4469C70.3337 69.5518 69.2291 70.771 68.0483 71.914C67.6293 72.3141 67.1341 72.6379 66.658 72.9999C66.3913 72.9999 66.0485 72.9999 65.7248 72.9999ZM56.8116 52.4067C55.3452 53.8736 53.8406 55.3595 52.3551 56.8454C52.8503 57.3407 53.4026 57.8932 53.9168 58.3885C55.4213 56.9026 56.9069 55.4166 58.3733 53.9688C57.8591 53.4735 57.3068 52.9211 56.8116 52.4067ZM56.9069 61.3603C58.4114 59.8553 59.8969 58.3694 61.3253 56.9597C60.9254 56.5597 60.4683 56.0834 60.0684 55.6833C58.6209 57.1502 57.1354 58.6171 55.6308 60.122C56.0498 60.5221 56.5069 60.9793 56.9069 61.3603ZM53.593 52.2734C52.3741 51.0542 51.1743 49.835 50.0125 48.6729C49.5745 49.1111 49.0984 49.5683 48.6603 49.9874C49.8602 51.1875 51.06 52.3877 52.2789 53.6259C52.7169 53.2068 53.174 52.7306 53.593 52.2734Z" fill="#333333"/>
<path d="M4.28529 29.1084C4.2472 17.3164 12.5128 7.10557 24.0351 4.74336C37.4048 1.98109 50.6983 11.0489 53.0599 24.4983C55.3834 37.7572 46.9654 50.254 33.7671 52.9592C26.6443 54.426 20.1118 52.8068 14.2078 48.5967C13.5222 48.1014 13.3889 47.5108 13.7888 46.9584C14.1888 46.425 14.7982 46.3869 15.4838 46.8822C19.7309 49.9492 24.4731 51.4161 29.6915 51.3018C39.9187 51.0923 49.1556 43.1484 50.9268 33.109C53.0789 20.8597 45.7084 9.71544 33.6338 6.91507C23.2161 4.51476 12.1128 10.306 8.17049 20.4025C4.87569 28.7846 6.09457 36.5761 11.8462 43.5675C12.4176 44.2533 12.4556 44.8819 11.9414 45.3201C11.4463 45.7582 10.8559 45.663 10.3226 45.0724C8.09431 42.5578 6.45643 39.6812 5.428 36.4808C4.66619 34.0805 4.28529 31.6231 4.28529 29.1084Z" fill="#333333"/>
<path d="M34.5669 20.6124C36.5285 20.6124 38.3569 20.6124 40.1852 20.6124C40.4899 20.6124 40.7946 20.6124 41.1184 20.6124C42.5658 20.6315 43.1181 21.1839 43.1372 22.6508C43.1372 24.3082 43.1562 25.9846 43.1372 27.6419C43.1181 28.1753 43.3086 28.3658 43.8228 28.3277C44.1275 28.2896 44.4513 28.3087 44.737 28.3468C45.2702 28.423 45.594 28.7849 45.6131 29.3183C45.6511 29.8898 45.3464 30.2708 44.7941 30.4042C44.5275 30.4613 44.2228 30.4613 43.9371 30.4613C34.1288 30.4613 24.3206 30.4613 14.5123 30.4613C14.2267 30.4613 13.941 30.4613 13.6553 30.4042C13.084 30.2899 12.7983 29.8898 12.8364 29.3183C12.8745 28.7849 13.1792 28.442 13.7125 28.3468C13.8458 28.3277 13.9981 28.3277 14.1314 28.3277C15.3122 28.2896 15.3122 28.3087 15.3122 27.0895C15.3122 23.9081 15.3122 20.7267 15.3122 17.5454C15.3122 15.6785 15.7693 15.2213 17.6167 15.2213C19.426 15.2213 21.2353 15.2213 23.0255 15.2213C23.2731 15.2213 23.5397 15.2213 23.8635 15.2213C23.8635 14.0402 23.8635 12.9543 23.8635 11.8684C23.8635 10.3635 24.4158 9.81104 25.9394 9.81104C28.1487 9.81104 30.3579 9.81104 32.5671 9.81104C33.9765 9.81104 34.5669 10.3825 34.5669 11.7922C34.5859 14.4212 34.5669 17.0691 34.5669 19.698C34.5669 19.9457 34.5669 20.2314 34.5669 20.6124ZM26.0918 11.9446C26.0918 17.412 26.0918 22.8223 26.0918 28.2325C28.2248 28.2325 30.3008 28.2325 32.3957 28.2325C32.3957 22.7651 32.3957 17.3739 32.3957 11.9446C30.2627 11.9446 28.1868 11.9446 26.0918 11.9446ZM23.8254 28.2706C23.8254 24.613 23.8254 21.0125 23.8254 17.393C21.6924 17.393 19.5974 17.393 17.5215 17.393C17.5215 21.0506 17.5215 24.6511 17.5215 28.2706C19.6355 28.2706 21.6924 28.2706 23.8254 28.2706ZM34.624 28.2706C36.738 28.2706 38.8139 28.2706 40.928 28.2706C40.928 26.4227 40.928 24.613 40.928 22.8032C38.7949 22.8032 36.719 22.8032 34.624 22.8032C34.624 24.632 34.624 26.4227 34.624 28.2706Z" fill="#333333"/>
<path d="M25.3296 38.8811C24.9106 39.6431 24.5488 40.2908 24.1869 40.9195C23.9203 41.3957 23.5394 41.6434 22.968 41.6243C21.2159 41.6053 19.4447 41.6243 17.6925 41.6243C16.9117 41.6243 16.4355 41.2052 16.4355 40.5575C16.4355 39.9289 16.9117 39.4907 17.6735 39.4907C19.0828 39.4717 20.4731 39.4717 21.8825 39.4907C22.3395 39.5098 22.6062 39.3764 22.8347 38.9573C23.368 37.9286 23.9584 36.919 24.5297 35.9093C24.7773 35.4521 25.1011 35.1473 25.6534 35.2045C26.2057 35.2616 26.4723 35.6236 26.6437 36.0998C27.3294 38.0429 28.015 39.967 28.7387 42.0625C29.1196 41.0528 29.4434 40.1956 29.7671 39.3383C30.4337 37.5286 31.1193 35.7379 31.7669 33.9281C31.9573 33.3947 32.243 32.9756 32.8524 32.9565C33.4619 32.9565 33.7666 33.3375 33.9761 33.89C34.6236 35.5664 35.2902 37.2428 35.9378 38.9383C36.0901 39.3574 36.3187 39.5098 36.7757 39.4907C38.1851 39.4526 39.5754 39.4717 40.9847 39.4907C41.8036 39.4907 42.2798 39.9098 42.2607 40.5956C42.2417 41.2433 41.7846 41.6243 40.9847 41.6243C39.1945 41.6243 37.4233 41.6243 35.633 41.6243C34.9665 41.6243 34.5855 41.3195 34.357 40.7099C33.919 39.5479 33.4428 38.3858 32.9286 37.0523C32.5668 38.0429 32.262 38.843 31.9573 39.6431C31.2527 41.5291 30.548 43.415 29.8624 45.3201C29.6719 45.8535 29.3862 46.2726 28.7768 46.2726C28.1293 46.2726 27.8436 45.8344 27.6531 45.2629C27.0056 43.396 26.339 41.5481 25.6915 39.7003C25.5772 39.4907 25.4629 39.2431 25.3296 38.8811Z" fill="url(#paint0_linear_1850_988)"/>
<path opacity="0.3" d="M56.812 52.4067C57.3072 52.9211 57.8595 53.4735 58.3737 53.9688C56.9073 55.4166 55.4027 56.9026 53.9172 58.3885C53.422 57.8932 52.8697 57.3407 52.3555 56.8454C53.841 55.3595 55.3265 53.8736 56.812 52.4067Z" fill="url(#paint1_linear_1850_988)"/>
<path opacity="0.3" d="M56.9069 61.3605C56.526 60.9795 56.0499 60.5223 55.6309 60.1032C57.1164 58.6173 58.6019 57.1314 60.0684 55.6646C60.4683 56.0646 60.9254 56.5409 61.3254 56.9409C59.897 58.3697 58.4114 59.8556 56.9069 61.3605Z" fill="url(#paint2_linear_1850_988)"/>
<path d="M53.5933 52.2733C53.1743 52.7115 52.7173 53.1877 52.2983 53.6259C51.0794 52.4067 49.8795 51.1875 48.6797 49.9873C49.0987 49.5682 49.5939 49.092 50.0319 48.6729C51.1746 49.854 52.3744 51.0541 53.5933 52.2733Z" fill="white"/>
<path opacity="0.7" d="M26.0918 11.9443C28.1868 11.9443 30.2627 11.9443 32.3957 11.9443C32.3957 17.3736 32.3957 22.7648 32.3957 28.2322C30.3008 28.2322 28.2439 28.2322 26.0918 28.2322C26.0918 22.8219 26.0918 17.4117 26.0918 11.9443Z" fill="url(#paint3_linear_1850_988)"/>
<path opacity="0.7" d="M23.8254 28.2702C21.6924 28.2702 19.6355 28.2702 17.5215 28.2702C17.5215 24.6507 17.5215 21.0502 17.5215 17.3926C19.5974 17.3926 21.6924 17.3926 23.8254 17.3926C23.8254 21.0121 23.8254 24.6126 23.8254 28.2702Z" fill="url(#paint4_linear_1850_988)"/>
<path opacity="0.7" d="M34.624 28.2701C34.624 26.4413 34.624 24.6506 34.624 22.8027C36.719 22.8027 38.7949 22.8027 40.928 22.8027C40.928 24.6125 40.928 26.4223 40.928 28.2701C38.814 28.2701 36.738 28.2701 34.624 28.2701Z" fill="url(#paint5_linear_1850_988)"/>
</g>
<defs>
<linearGradient id="paint0_linear_1850_988" x1="16.4355" y1="46.2726" x2="42.2613" y2="46.2726" gradientUnits="userSpaceOnUse">
<stop stop-color="#F60093"/>
<stop offset="1" stop-color="#FD5B7A"/>
</linearGradient>
<linearGradient id="paint1_linear_1850_988" x1="52.3555" y1="58.3885" x2="58.3737" y2="58.3885" gradientUnits="userSpaceOnUse">
<stop stop-color="#F60093"/>
<stop offset="1" stop-color="#FD5B7A"/>
</linearGradient>
<linearGradient id="paint2_linear_1850_988" x1="55.6309" y1="61.3605" x2="61.3254" y2="61.3605" gradientUnits="userSpaceOnUse">
<stop stop-color="#F60093"/>
<stop offset="1" stop-color="#FD5B7A"/>
</linearGradient>
<linearGradient id="paint3_linear_1850_988" x1="26.0918" y1="28.2322" x2="32.3957" y2="28.2322" gradientUnits="userSpaceOnUse">
<stop stop-color="#F60093"/>
<stop offset="1" stop-color="#FD5B7A"/>
</linearGradient>
<linearGradient id="paint4_linear_1850_988" x1="17.5215" y1="28.2702" x2="23.8254" y2="28.2702" gradientUnits="userSpaceOnUse">
<stop stop-color="#F60093"/>
<stop offset="1" stop-color="#FD5B7A"/>
</linearGradient>
<linearGradient id="paint5_linear_1850_988" x1="34.624" y1="28.2701" x2="40.928" y2="28.2701" gradientUnits="userSpaceOnUse">
<stop stop-color="#F60093"/>
<stop offset="1" stop-color="#FD5B7A"/>
</linearGradient>
<clipPath id="clip0_1850_988">
<rect width="73" height="73" fill="white"/>
</clipPath>
</defs>
</svg>
