<svg width="28" height="29" viewBox="0 0 28 29" fill="none" xmlns="http://www.w3.org/2000/svg">
<path d="M14 0.896973C6.26792 0.896973 0 7.16489 0 14.897C0 22.6291 6.26792 28.897 14 28.897C21.7321 28.897 28 22.6291 28 14.897C28 7.16489 21.7321 0.896973 14 0.896973ZM10.5729 20.6997H7.73792V11.5763H10.5729V20.6997ZM9.13792 10.4563C8.2425 10.4563 7.66354 9.82197 7.66354 9.03739C7.66354 8.23676 8.26 7.62135 9.17437 7.62135C10.0887 7.62135 10.6487 8.23676 10.6662 9.03739C10.6662 9.82197 10.0887 10.4563 9.13792 10.4563ZM20.9271 20.6997H18.0921V15.6436C18.0921 14.4668 17.6808 13.6676 16.6556 13.6676C15.8725 13.6676 15.4073 14.2086 15.2017 14.7293C15.1258 14.9145 15.1069 15.177 15.1069 15.438V20.6982H12.2704V14.4857C12.2704 13.3468 12.234 12.3945 12.196 11.5749H14.6592L14.789 12.8422H14.8458C15.2192 12.2472 16.1335 11.3693 17.6633 11.3693C19.5285 11.3693 20.9271 12.6191 20.9271 15.3053V20.6997Z" fill="#0A66C2"/>
</svg>
