<svg width="63" height="63" viewBox="0 0 63 63" fill="none" xmlns="http://www.w3.org/2000/svg">
<g clip-path="url(#clip0_1871_984)">
<path d="M-0.000156771 30.7432C0.180736 30.661 0.147846 30.4636 0.197181 30.3155C0.723414 28.9667 1.92388 28.062 3.33814 28.062C4.80172 28.062 5.88708 28.7529 6.49554 30.1017C6.65998 30.4471 6.82443 30.5952 7.21911 30.5623C7.81112 30.5294 8.40313 30.5458 8.99514 30.5623C9.6036 30.5787 9.96539 30.9077 9.98183 31.4341C9.99828 31.9933 9.65294 32.3552 9.01159 32.3881C8.3538 32.421 7.696 32.4046 7.03821 32.4046C6.82443 32.4046 6.67643 32.4375 6.57776 32.6842C5.9693 34.1317 4.85106 34.9377 3.27236 34.8719C1.66077 34.8061 0.575411 33.9014 0.098512 32.3388C0.0820672 32.2894 0.016288 32.2565 -0.0166016 32.2072C-0.000156771 31.7302 -0.000156771 31.2367 -0.000156771 30.7432Z" fill="black"/>
<path d="M32.1334 62.8847C32.117 62.9176 32.117 62.9505 32.117 62.9833C31.7059 62.9833 31.2948 62.9833 30.8836 62.9833C30.8836 62.9505 30.8836 62.9176 30.8672 62.8847C31.2948 62.5886 31.7059 62.5886 32.1334 62.8847Z" fill="#646464"/>
<circle opacity="0.8" cx="31.5" cy="31.5" r="6.5" fill="url(#paint0_linear_1871_984)"/>
<path d="M42.7892 46.9951C42.2794 47.0115 41.8354 46.7977 41.4243 46.5181C40.4869 45.893 39.5496 45.2844 38.6122 44.6429C38.3656 44.4619 38.1682 44.4455 37.8887 44.5935C37.5104 44.8074 37.1157 45.0212 36.7046 45.1034C35.9811 45.2515 35.7508 45.6956 35.6522 46.37C35.5206 47.357 35.2904 48.3439 35.0602 49.3144C34.8135 50.4 34.0241 51.0251 32.9059 51.0416C31.9356 51.058 30.9818 51.058 30.0116 51.0416C28.9427 51.0251 28.1369 50.3836 27.9067 49.3309C27.6435 48.1794 27.4133 47.0115 27.1995 45.8437C27.1338 45.5147 27.0022 45.3502 26.7062 45.2515C26.1635 45.0706 25.6373 44.8567 25.1275 44.5935C24.8315 44.4455 24.6177 44.4784 24.3546 44.6593C23.4501 45.2844 22.5128 45.893 21.5919 46.5016C20.4572 47.2418 19.5034 47.1596 18.5496 46.2384C17.9247 45.6298 17.2833 45.0048 16.6749 44.3632C15.8362 43.4914 15.7375 42.4716 16.3953 41.4518C17.0038 40.5306 17.5958 39.593 18.2371 38.6883C18.4674 38.3593 18.5167 38.1126 18.3194 37.7507C18.1056 37.3888 17.9247 36.9776 17.826 36.5664C17.678 35.9413 17.3162 35.7439 16.7242 35.6452C15.6882 35.4807 14.6686 35.2669 13.649 35.0366C12.5472 34.7899 11.9223 34.0168 11.9059 32.8982C11.8894 31.8948 11.8894 30.8914 11.9059 29.8881C11.9388 28.9669 12.5637 28.1774 13.4188 27.9306C13.9779 27.7661 14.4384 27.9635 14.6522 28.4405C14.8659 28.9176 14.6851 29.3781 14.1259 29.6249C13.8299 29.7565 13.7313 29.921 13.7477 30.2335C13.7641 31.0559 13.7641 31.8784 13.7477 32.7008C13.7313 33.0792 13.8793 33.2601 14.2575 33.3259C15.5237 33.5562 16.79 33.8523 18.0562 34.0661C18.7305 34.1813 19.1252 34.4773 19.2896 35.1518C19.5034 36.0071 19.8487 36.8131 20.2927 37.5862C20.6216 38.129 20.5723 38.5896 20.1941 39.116C19.454 40.1523 18.7963 41.2379 18.0727 42.2742C17.7931 42.669 17.7767 42.9322 18.1385 43.2612C18.714 43.7875 19.2567 44.3468 19.7994 44.9061C20.0625 45.1857 20.2763 45.2021 20.5887 44.9883C21.707 44.2316 22.8417 43.4914 23.9599 42.7348C24.4204 42.4222 24.8315 42.3893 25.3248 42.669C26.1471 43.146 27.0186 43.5079 27.9231 43.7382C28.4822 43.8862 28.7782 44.2316 28.8769 44.7909C29.1071 46.0575 29.4031 47.3241 29.6169 48.5906C29.6992 49.117 29.9294 49.2651 30.4227 49.2322C31.1627 49.1993 31.9028 49.1993 32.6428 49.2322C33.0703 49.2486 33.2677 49.117 33.3499 48.6729C33.5801 47.4063 33.8597 46.1397 34.0899 44.8732C34.205 44.2645 34.4846 43.8698 35.093 43.7217C36.0139 43.4914 36.8691 43.1131 37.6913 42.6361C38.1682 42.3729 38.5629 42.4058 39.0069 42.7019C40.1251 43.4585 41.2598 44.1987 42.3781 44.9554C42.7234 45.1857 42.9372 45.1692 43.2168 44.8732C43.743 44.3139 44.2692 43.7711 44.8284 43.2612C45.1737 42.9322 45.2395 42.6854 44.9435 42.2742C44.187 41.205 43.4963 40.0865 42.7399 39.0173C42.4274 38.5567 42.3781 38.1455 42.6576 37.652C43.1345 36.8131 43.4799 35.9249 43.7759 35.0037C43.9897 34.2964 44.7132 33.9016 45.4039 34.0826C46.0453 34.2471 46.3742 35.1189 45.8644 35.5301C45.3217 35.9578 45.3053 36.5993 44.9764 37.0763C44.3843 37.9481 44.5652 38.6554 45.2066 39.4121C45.7328 40.0536 46.1604 40.7938 46.6044 41.5011C47.2457 42.5045 47.1471 43.4914 46.3248 44.3632C45.6835 45.0377 45.0257 45.6792 44.3679 46.3207C43.9403 46.7484 43.4141 47.0115 42.7892 46.9951Z" fill="black"/>
<path d="M51.0772 31.4837C51.0772 32.043 51.11 32.5858 51.0772 33.1451C51.0278 34.0004 50.5674 34.5926 49.778 34.938C49.2847 35.1519 48.89 35.0038 48.6104 34.5597C48.3473 34.132 48.4131 33.6715 48.8242 33.4083C49.2189 33.1615 49.2518 32.8655 49.2353 32.4871C49.2189 31.7469 49.2189 31.0067 49.2353 30.2665C49.2518 29.8553 49.0709 29.6908 48.6927 29.625C47.4264 29.3947 46.1602 29.1151 44.8939 28.8848C44.2526 28.7696 43.8743 28.4735 43.7099 27.832C43.4961 26.9602 43.1343 26.1213 42.6739 25.3482C42.3779 24.8383 42.4107 24.4106 42.7396 23.9336C43.4961 22.848 44.2197 21.713 44.9597 20.6273C45.1899 20.2983 45.1735 20.0681 44.8775 19.7884C44.3019 19.2456 43.7263 18.6699 43.1837 18.0942C42.9041 17.7981 42.6739 17.8145 42.345 18.0284C41.2596 18.7686 40.1578 19.4594 39.0889 20.2161C38.5956 20.5615 38.1515 20.6273 37.6253 20.3148C36.836 19.8542 35.9808 19.4923 35.0764 19.2621C34.4844 19.114 34.2048 18.7521 34.0897 18.16C33.8595 16.8769 33.5799 15.5939 33.3332 14.2944C33.2674 13.8996 33.103 13.7352 32.6919 13.7516C31.8861 13.7845 31.0967 13.7845 30.2909 13.7516C29.8798 13.7352 29.7154 13.8832 29.6331 14.2944C29.4029 15.5446 29.1069 16.7782 28.9096 18.0284C28.7945 18.7192 28.482 19.1305 27.7913 19.295C26.9691 19.4923 26.1962 19.8213 25.4726 20.249C24.897 20.5944 24.3873 20.578 23.8281 20.1832C22.8086 19.4594 21.7396 18.8179 20.7201 18.0777C20.2761 17.7487 19.9801 17.8145 19.6347 18.2093C19.1414 18.7521 18.6151 19.2785 18.0725 19.772C17.7765 20.0516 17.76 20.2819 17.9902 20.6109C18.7467 21.713 19.4538 22.8315 20.2103 23.9171C20.5392 24.3942 20.5885 24.8218 20.2761 25.3318C19.7827 26.1871 19.4538 27.1083 19.1578 28.0459C18.9276 28.7532 18.1218 29.0657 17.5298 28.7203C17.0693 28.4406 16.9378 27.8485 17.2831 27.3879C17.8422 26.6148 17.9573 25.6443 18.4342 24.8383C18.5494 24.6409 18.3685 24.4929 18.2698 24.3448C17.6449 23.4072 17.02 22.4696 16.3951 21.532C15.688 20.4464 15.7866 19.4594 16.6911 18.5383C17.2996 17.9297 17.908 17.3046 18.5165 16.7124C19.4538 15.8077 20.4241 15.7091 21.5094 16.4164C22.4468 17.025 23.3841 17.65 24.3215 18.2916C24.5846 18.4725 24.7984 18.5054 25.0944 18.3409C25.6042 18.0777 26.1469 17.8803 26.6731 17.6829C26.9855 17.5678 27.1171 17.4198 27.1664 17.0908C27.3638 15.9393 27.6104 14.8043 27.8571 13.6694C28.1202 12.5344 28.8931 11.9093 30.0443 11.9093C30.9816 11.8929 31.9354 11.8929 32.8728 11.9093C33.991 11.9258 34.7804 12.5508 35.027 13.6365C35.2902 14.7879 35.5204 15.9558 35.7342 17.1237C35.7835 17.4362 35.9151 17.5842 36.1946 17.6829C36.6386 17.831 37.1155 17.9626 37.4938 18.2093C38.0364 18.5712 38.4311 18.4232 38.908 18.0777C39.6974 17.502 40.536 16.9756 41.3583 16.4328C42.4436 15.709 43.4303 15.7913 44.3677 16.696C45.009 17.3046 45.6339 17.9297 46.2424 18.5712C47.114 19.4759 47.2291 20.4628 46.5384 21.532C45.9299 22.4696 45.305 23.4237 44.6637 24.3448C44.4499 24.6409 44.4335 24.8712 44.6143 25.1673C44.7459 25.3976 44.9104 25.6443 44.9432 25.891C45.1077 26.9767 45.7984 27.3057 46.7851 27.4208C47.6402 27.5195 48.4789 27.7333 49.3176 27.9143C50.3865 28.161 51.0114 28.9177 51.0443 30.0033C51.0936 30.4968 51.0772 30.9903 51.0772 31.4837Z" fill="black"/>
<path d="M38.399 31.1215C38.3826 35.4311 35.1265 38.5236 31.1469 38.3591C27.3152 38.1946 24.3223 34.7732 24.6347 30.8912C24.9636 26.746 29.1406 23.7194 33.1038 24.7721C33.7616 24.9531 34.074 25.3643 33.9754 25.8907C33.8603 26.4335 33.3998 26.6802 32.742 26.5651C32.6598 26.5486 32.5776 26.5486 32.4953 26.5322C30.4233 26.1868 28.713 26.8283 27.4632 28.5061C26.2299 30.1674 26.0983 32.0097 27.0686 33.8191C28.0552 35.6614 29.6668 36.5661 31.7553 36.5003C35.3896 36.3852 37.6755 32.421 36.0145 29.1805C35.9652 29.0818 35.9159 28.9995 35.8665 28.9173C35.4554 28.1935 35.5212 27.6836 36.0639 27.3875C36.5737 27.1079 37.0506 27.3053 37.4617 27.9797C38.0701 29.0653 38.3826 30.2497 38.399 31.1215Z" fill="black"/>
<path d="M30.5713 8.01049C30.5713 7.9776 30.5713 7.92825 30.5713 7.89535C30.6864 7.15514 30.4891 6.67812 29.7162 6.28334C28.3348 5.59248 27.7757 3.89822 28.2197 2.43425C28.6802 0.953836 30.0944 -0.0495585 31.6074 0.0162378C33.186 0.0984833 34.5181 1.23347 34.8141 2.74679C35.1101 4.3259 34.3701 5.87211 32.9229 6.49718C32.4789 6.69457 32.3638 6.92485 32.3967 7.35253C32.4296 7.92825 32.4296 8.50397 32.3967 9.06324C32.3638 9.6554 32.002 10.0173 31.4758 10.0008C30.9496 10.0008 30.6042 9.63895 30.5713 9.04679C30.5549 8.70135 30.5713 8.35592 30.5713 8.01049Z" fill="black"/>
<path d="M32.1332 62.885C31.7056 62.885 31.2945 62.885 30.8669 62.885C29.3375 62.5725 28.2851 61.4375 28.1042 59.8584C27.9397 58.4931 28.7455 57.0785 30.0776 56.4863C30.5051 56.3054 30.6038 56.0751 30.5874 55.6639C30.5545 55.0881 30.5709 54.5124 30.5874 53.9367C30.6038 53.3281 30.9491 52.9662 31.4754 52.9498C32.018 52.9333 32.3963 53.2952 32.4292 53.9367C32.4456 54.5289 32.4621 55.121 32.4292 55.7132C32.4127 56.0915 32.5114 56.2889 32.8896 56.437C34.2545 57.0127 35.0768 58.4602 34.9123 59.8419C34.715 61.4375 33.6625 62.5725 32.1332 62.885Z" fill="black"/>
<path d="M8.2384 51.2884C8.25485 48.9198 10.6393 47.2913 12.8758 48.1795C13.2541 48.3276 13.4514 48.2782 13.6981 47.9986C14.0928 47.5545 14.5203 47.1433 14.9643 46.732C15.4248 46.3044 15.9346 46.2879 16.3292 46.6827C16.691 47.061 16.6746 47.5545 16.2799 47.9986C16.1319 48.1631 15.9675 48.3276 15.803 48.4756C15.1452 49.1007 14.6025 49.5942 14.9479 50.795C15.4906 52.736 13.879 54.5783 11.9056 54.7263C9.89933 54.8743 8.22196 53.2952 8.2384 51.2884Z" fill="black"/>
<path d="M15.0307 11.465C15.0307 11.975 15.0471 12.3368 14.8827 12.6165C14.5209 13.2086 14.784 13.5705 15.228 13.9489C15.6063 14.2614 15.9352 14.6233 16.2805 14.9851C16.6752 15.4128 16.6752 15.9392 16.2969 16.3011C15.9187 16.6794 15.4089 16.6794 14.9814 16.2682C14.5209 15.8405 14.0605 15.3964 13.6329 14.9194C13.4027 14.6562 13.2218 14.6562 12.9093 14.7713C11.0675 15.5115 9.04479 14.5739 8.40345 12.7481C7.77854 10.9387 8.81457 8.93188 10.6235 8.37261C12.4982 7.81335 14.4222 8.89899 14.932 10.7906C15.0143 11.0703 15.0143 11.3663 15.0307 11.465Z" fill="black"/>
<path d="M51.1926 15.0344C50.9295 15.0344 50.5512 15.0179 50.2223 14.837C49.7948 14.5902 49.5317 14.6889 49.2357 15.0344C48.8574 15.462 48.4463 15.8568 48.0187 16.2516C47.5747 16.6628 47.0814 16.6793 46.7032 16.3009C46.3085 15.9226 46.3085 15.3962 46.736 14.9357C47.1636 14.4915 47.5912 14.0474 48.0352 13.6362C48.2654 13.4223 48.3312 13.2414 48.1996 12.9124C47.4432 11.0208 48.4299 8.94819 50.321 8.37248C52.2286 7.78031 54.202 8.93175 54.6624 10.9056C55.1887 13.0276 53.4949 15.0837 51.1926 15.0344Z" fill="black"/>
<path d="M54.7613 51.354C54.7613 52.7192 53.9391 53.9858 52.6728 54.4793C51.3244 55.0057 50.091 54.7754 49.0221 53.8049C48.0025 52.8837 47.6572 51.4198 48.1834 50.1532C48.3479 49.742 48.2821 49.5446 47.9861 49.2814C47.5914 48.9195 47.2296 48.5412 46.8514 48.1629C46.3252 47.6365 46.2758 47.1266 46.6869 46.7153C47.0981 46.2877 47.6079 46.337 48.1341 46.8469C48.5288 47.2253 48.9399 47.6036 49.3017 48.0313C49.5483 48.3109 49.7621 48.3602 50.1239 48.2122C52.3768 47.2911 54.7613 48.936 54.7613 51.354Z" fill="black"/>
<path d="M54.9584 30.5788C55.0571 30.5788 55.1722 30.5624 55.2709 30.5788C55.9287 30.6611 56.3233 30.513 56.6687 29.8057C57.3429 28.3911 59.0532 27.7825 60.5496 28.2102C62.0461 28.6543 63.0657 30.0525 62.9999 31.6316C62.9506 33.1284 61.8323 34.4773 60.3688 34.8062C58.7901 35.1517 57.1949 34.4279 56.5371 32.9639C56.3233 32.4869 56.0931 32.3718 55.6327 32.4047C55.1064 32.4376 54.5637 32.4211 54.0375 32.4047C53.3633 32.3718 52.985 32.0263 53.0015 31.4506C53.0179 30.8914 53.3797 30.5953 54.0375 30.5624C54.35 30.5624 54.646 30.5788 54.9584 30.5788Z" fill="black"/>
<path d="M4.96646 31.4998C4.95002 32.3552 4.24289 33.0625 3.40421 33.046C2.56552 33.0296 1.8584 32.3058 1.8584 31.4669C1.87484 30.6116 2.59841 29.9042 3.4371 29.9207C4.27578 29.9371 4.96646 30.6445 4.96646 31.4998Z" fill="white"/>
<path d="M33.0709 3.43763C33.0545 4.27654 32.3145 5.0003 31.4758 4.98385C30.6207 4.9674 29.9135 4.22719 29.93 3.38829C29.9464 2.54938 30.6864 1.82562 31.5251 1.84207C32.3638 1.87497 33.0874 2.61518 33.0709 3.43763Z" fill="white"/>
<path d="M31.5251 61.1247C30.6864 61.1411 29.9464 60.4173 29.93 59.5784C29.9135 58.7395 30.6371 57.9993 31.4758 57.9993C32.3145 57.9829 33.0545 58.6902 33.0709 59.5455C33.0874 60.368 32.3638 61.1082 31.5251 61.1247Z" fill="white"/>
<path d="M13.1891 51.3377C13.1891 52.1931 12.4984 52.9004 11.6269 52.9004C10.7717 52.9004 10.0811 52.1931 10.0811 51.3377C10.0811 50.4659 10.7717 49.7915 11.6433 49.7915C12.5149 49.7915 13.1891 50.4659 13.1891 51.3377Z" fill="white"/>
<path d="M11.6592 10.0833C12.5144 10.0997 13.205 10.7906 13.1886 11.6624C13.1721 12.5342 12.4979 13.2086 11.6263 13.1922C10.7548 13.1757 10.0805 12.4849 10.097 11.6131C10.097 10.7577 10.8041 10.0668 11.6592 10.0833Z" fill="white"/>
<path d="M51.3572 10.0833C52.2123 10.0833 52.903 10.7906 52.903 11.646C52.903 12.5178 52.2123 13.1922 51.3407 13.1922C50.4692 13.1922 49.7949 12.5178 49.7949 11.646C49.8114 10.7742 50.502 10.0668 51.3572 10.0833Z" fill="white"/>
<path d="M51.3409 52.9004C50.4858 52.8839 49.8115 52.1766 49.8115 51.3213C49.828 50.4495 50.5022 49.7915 51.3902 49.7915C52.2618 49.808 52.936 50.4988 52.9196 51.3706C52.9031 52.226 52.196 52.9168 51.3409 52.9004Z" fill="white"/>
<path d="M61.1413 31.4836C61.1413 32.3225 60.4341 33.0462 59.5955 33.0627C58.7403 33.0791 58.0332 32.3718 58.0332 31.5C58.0332 30.6447 58.7239 29.9209 59.579 29.9209C60.4177 29.9209 61.1413 30.6282 61.1413 31.4836Z" fill="white"/>
<g opacity="0.3">
<path d="M4.96646 31.4998C4.95002 32.3552 4.24289 33.0625 3.40421 33.046C2.56552 33.0296 1.8584 32.3058 1.8584 31.4669C1.87484 30.6116 2.59841 29.9042 3.4371 29.9207C4.27578 29.9371 4.96646 30.6445 4.96646 31.4998Z" fill="url(#paint1_linear_1871_984)"/>
<path d="M33.0709 3.43763C33.0545 4.27654 32.3145 5.0003 31.4758 4.98385C30.6207 4.9674 29.9135 4.22719 29.93 3.38829C29.9464 2.54938 30.6864 1.82562 31.5251 1.84207C32.3638 1.87497 33.0874 2.61518 33.0709 3.43763Z" fill="url(#paint2_linear_1871_984)"/>
<path d="M31.5251 61.1247C30.6864 61.1411 29.9464 60.4173 29.93 59.5784C29.9135 58.7395 30.6371 57.9993 31.4758 57.9993C32.3145 57.9829 33.0545 58.6902 33.0709 59.5455C33.0874 60.368 32.3638 61.1082 31.5251 61.1247Z" fill="url(#paint3_linear_1871_984)"/>
<path d="M13.1891 51.3377C13.1891 52.1931 12.4984 52.9004 11.6269 52.9004C10.7717 52.9004 10.0811 52.1931 10.0811 51.3377C10.0811 50.4659 10.7717 49.7915 11.6433 49.7915C12.5149 49.7915 13.1891 50.4659 13.1891 51.3377Z" fill="url(#paint4_linear_1871_984)"/>
<path d="M11.6592 10.0833C12.5144 10.0997 13.205 10.7906 13.1886 11.6624C13.1721 12.5342 12.4979 13.2086 11.6263 13.1922C10.7548 13.1757 10.0805 12.4849 10.097 11.6131C10.097 10.7577 10.8041 10.0668 11.6592 10.0833Z" fill="url(#paint5_linear_1871_984)"/>
<path d="M51.3572 10.0833C52.2123 10.0833 52.903 10.7906 52.903 11.646C52.903 12.5178 52.2123 13.1922 51.3407 13.1922C50.4692 13.1922 49.7949 12.5178 49.7949 11.646C49.8114 10.7742 50.502 10.0668 51.3572 10.0833Z" fill="url(#paint6_linear_1871_984)"/>
<path d="M51.3409 52.9004C50.4858 52.8839 49.8115 52.1766 49.8115 51.3213C49.828 50.4495 50.5022 49.7915 51.3902 49.7915C52.2618 49.808 52.936 50.4988 52.9196 51.3706C52.9031 52.226 52.196 52.9168 51.3409 52.9004Z" fill="url(#paint7_linear_1871_984)"/>
<path d="M61.1413 31.4836C61.1413 32.3225 60.4341 33.0462 59.5955 33.0627C58.7403 33.0791 58.0332 32.3718 58.0332 31.5C58.0332 30.6447 58.7239 29.9209 59.579 29.9209C60.4177 29.9209 61.1413 30.6282 61.1413 31.4836Z" fill="url(#paint8_linear_1871_984)"/>
</g>
</g>
<defs>
<linearGradient id="paint0_linear_1871_984" x1="25" y1="38" x2="38" y2="38" gradientUnits="userSpaceOnUse">
<stop stop-color="#F60093"/>
<stop offset="1" stop-color="#FD5B7A"/>
</linearGradient>
<linearGradient id="paint1_linear_1871_984" x1="1.8584" y1="33.0463" x2="4.96646" y2="33.0463" gradientUnits="userSpaceOnUse">
<stop stop-color="#F60093"/>
<stop offset="1" stop-color="#FD5B7A"/>
</linearGradient>
<linearGradient id="paint2_linear_1871_984" x1="29.9297" y1="4.98412" x2="33.0712" y2="4.98412" gradientUnits="userSpaceOnUse">
<stop stop-color="#F60093"/>
<stop offset="1" stop-color="#FD5B7A"/>
</linearGradient>
<linearGradient id="paint3_linear_1871_984" x1="29.9297" y1="61.1249" x2="33.0712" y2="61.1249" gradientUnits="userSpaceOnUse">
<stop stop-color="#F60093"/>
<stop offset="1" stop-color="#FD5B7A"/>
</linearGradient>
<linearGradient id="paint4_linear_1871_984" x1="10.0811" y1="52.9004" x2="13.1891" y2="52.9004" gradientUnits="userSpaceOnUse">
<stop stop-color="#F60093"/>
<stop offset="1" stop-color="#FD5B7A"/>
</linearGradient>
<linearGradient id="paint5_linear_1871_984" x1="10.0967" y1="13.1925" x2="13.1889" y2="13.1925" gradientUnits="userSpaceOnUse">
<stop stop-color="#F60093"/>
<stop offset="1" stop-color="#FD5B7A"/>
</linearGradient>
<linearGradient id="paint6_linear_1871_984" x1="49.7949" y1="13.1922" x2="52.903" y2="13.1922" gradientUnits="userSpaceOnUse">
<stop stop-color="#F60093"/>
<stop offset="1" stop-color="#FD5B7A"/>
</linearGradient>
<linearGradient id="paint7_linear_1871_984" x1="49.8115" y1="52.9007" x2="52.9199" y2="52.9007" gradientUnits="userSpaceOnUse">
<stop stop-color="#F60093"/>
<stop offset="1" stop-color="#FD5B7A"/>
</linearGradient>
<linearGradient id="paint8_linear_1871_984" x1="58.0332" y1="33.063" x2="61.1413" y2="33.063" gradientUnits="userSpaceOnUse">
<stop stop-color="#F60093"/>
<stop offset="1" stop-color="#FD5B7A"/>
</linearGradient>
<clipPath id="clip0_1871_984">
<rect width="63" height="63" fill="white"/>
</clipPath>
</defs>
</svg>
