<svg width="13" height="11" viewBox="0 0 13 11" fill="none" xmlns="http://www.w3.org/2000/svg">
<path d="M2.09517 7.71342C2.17298 7.6356 2.27998 7.59021 2.39346 7.59021H12.6845C12.8725 7.59021 12.9665 7.81717 12.8336 7.9501L10.8007 9.98301C10.7229 10.0608 10.6159 10.1062 10.5024 10.1062H0.211402C0.0233495 10.1062 -0.0706766 9.87926 0.0622569 9.74633L2.09517 7.71342Z" fill="url(#paint0_linear_1970_7565)"/>
<path d="M2.09517 0.123207C2.17622 0.0453919 2.28322 0 2.39346 0H12.6845C12.8725 0 12.9665 0.22696 12.8336 0.359893L10.8007 2.3928C10.7229 2.47062 10.6159 2.51601 10.5024 2.51601H0.211402C0.0233495 2.51601 -0.0706766 2.28905 0.0622569 2.15612L2.09517 0.123207Z" fill="url(#paint1_linear_1970_7565)"/>
<path d="M10.8007 3.89396C10.7229 3.81614 10.6159 3.77075 10.5024 3.77075H0.211402C0.0233495 3.77075 -0.0706766 3.99771 0.0622569 4.13065L2.09517 6.16356C2.17298 6.24137 2.27998 6.28676 2.39346 6.28676H12.6845C12.8725 6.28676 12.9665 6.0598 12.8336 5.92687L10.8007 3.89396Z" fill="url(#paint2_linear_1970_7565)"/>
<defs>
<linearGradient id="paint0_linear_1970_7565" x1="11.7014" y1="-1.21438" x2="4.57917" y2="12.4275" gradientUnits="userSpaceOnUse">
<stop stop-color="#00FFA3"/>
<stop offset="1" stop-color="#DC1FFF"/>
</linearGradient>
<linearGradient id="paint1_linear_1970_7565" x1="8.58715" y1="-2.84028" x2="1.46496" y2="10.8016" gradientUnits="userSpaceOnUse">
<stop stop-color="#00FFA3"/>
<stop offset="1" stop-color="#DC1FFF"/>
</linearGradient>
<linearGradient id="paint2_linear_1970_7565" x1="10.1343" y1="-2.03254" x2="3.01215" y2="11.6093" gradientUnits="userSpaceOnUse">
<stop stop-color="#00FFA3"/>
<stop offset="1" stop-color="#DC1FFF"/>
</linearGradient>
</defs>
</svg>
