<svg width="32" height="31" viewBox="0 0 32 31" fill="none" xmlns="http://www.w3.org/2000/svg">
<path d="M16.0605 30.2378C24.3825 30.2378 31.1289 23.4689 31.1289 15.1189C31.1289 6.76896 24.3825 0 16.0605 0C7.73851 0 0.992188 6.76896 0.992188 15.1189C0.992188 23.4689 7.73851 30.2378 16.0605 30.2378Z" fill="url(#paint0_linear_1363_3027)"/>
<path d="M24.3819 9.93088C23.8379 10.1661 23.2649 10.3271 22.6783 10.4095C22.9509 10.4095 23.3427 9.8796 23.5301 9.68303C23.7764 9.38492 23.9643 9.04273 24.0838 8.67452C24.0838 8.67452 24.0838 8.60615 24.0838 8.58905C24.0695 8.5808 24.0533 8.57646 24.0369 8.57646C24.0204 8.57646 24.0043 8.5808 23.99 8.58905C23.3673 8.91965 22.7065 9.17224 22.0224 9.34116C22.002 9.35407 21.9784 9.36091 21.9543 9.36091C21.9302 9.36091 21.9065 9.35407 21.8861 9.34116C21.8337 9.27728 21.7768 9.21729 21.7157 9.16168C21.4326 8.91549 21.1101 8.71901 20.7617 8.5805C20.2986 8.38733 19.7969 8.30539 19.2967 8.3412C18.8113 8.37668 18.3382 8.51092 17.9062 8.73573C17.4742 8.96053 17.0923 9.27121 16.7838 9.64884C16.4651 10.0438 16.2381 10.5051 16.1194 10.9992C16.0258 11.4675 16.0258 11.9497 16.1194 12.418C16.1194 12.4949 16.1194 12.5034 16.0512 12.4949C13.4499 12.2361 11.0369 11.0179 9.27947 9.07621C9.20281 8.9822 9.1602 8.9822 9.10058 9.07621C8.74246 9.72659 8.60526 10.4763 8.70977 11.2119C8.81428 11.9475 9.15482 12.6289 9.67979 13.153L10.0972 13.5205C9.64373 13.4805 9.20176 13.3558 8.79394 13.153C8.70876 13.1017 8.67467 13.153 8.66615 13.2213C8.65362 13.3492 8.65362 13.4781 8.66615 13.6059C8.74676 14.2182 8.98796 14.7979 9.3651 15.286C9.74225 15.774 10.2418 16.1528 10.8127 16.3836C10.9513 16.4471 11.0972 16.493 11.2471 16.5204C10.821 16.5876 10.387 16.5876 9.9609 16.5204C9.86721 16.5204 9.83315 16.5204 9.86722 16.64C10.086 17.2166 10.4482 17.7274 10.9193 18.1239C11.3905 18.5203 11.9549 18.7892 12.5589 18.9049C12.6821 18.9131 12.8045 18.9302 12.9252 18.9562C12.4025 19.4316 11.7703 19.7694 11.0853 19.939C10.1904 20.2582 9.23753 20.3806 8.29136 20.298C8.13803 20.298 8.11247 20.298 8.06988 20.298C8.02729 20.298 8.06992 20.3578 8.11251 20.4005C8.29991 20.5202 8.49581 20.6313 8.69173 20.7424C9.28458 21.0601 9.91006 21.3123 10.5572 21.4945C12.2179 21.9919 13.9791 22.0462 15.6671 21.652C17.3551 21.2578 18.9114 20.4288 20.1825 19.2467C21.0968 18.2506 21.8035 17.0812 22.2614 15.8073C22.7192 14.5334 22.9189 13.1806 22.8487 11.8282C22.8487 11.7257 22.9764 11.6659 23.0531 11.606C23.5532 11.2154 23.9949 10.7549 24.3648 10.2386C24.4219 10.1623 24.4519 10.069 24.45 9.97361C24.45 9.97361 24.45 9.90524 24.3819 9.93088Z" fill="white"/>
<defs>
<linearGradient id="paint0_linear_1363_3027" x1="0.992188" y1="30.2378" x2="31.1289" y2="30.2378" gradientUnits="userSpaceOnUse">
<stop stop-color="#F60093"/>
<stop offset="1" stop-color="#FD5B7A"/>
</linearGradient>
</defs>
</svg>
