<svg width="54" height="66" viewBox="0 0 54 66" fill="none" xmlns="http://www.w3.org/2000/svg">
<path d="M48.2263 0C49.954 0.581919 50.5759 1.81422 50.5759 3.59421C50.5241 12.1347 50.5587 20.6753 50.5587 29.2158C50.5587 29.404 50.5587 29.5923 50.5587 29.7977C50.5241 30.431 50.1095 30.8417 49.5566 30.8075C49.0211 30.7904 48.641 30.3967 48.641 29.7806C48.6237 27.9664 48.641 26.1521 48.641 24.3379C48.641 17.3549 48.641 10.3719 48.641 3.38882C48.641 2.17364 48.3818 1.91691 47.1725 1.91691C32.6256 1.91691 18.0787 1.91691 3.53186 1.91691C2.28795 1.91691 2.04607 2.15653 2.04607 3.35459C2.04607 19.5628 2.04607 35.7709 2.04607 51.962C2.04607 53.1772 2.27067 53.4168 3.51458 53.4168C12.8439 53.4168 22.1733 53.4168 31.5026 53.4168C31.7445 53.4168 31.9691 53.4168 32.2455 53.4168C32.8847 49.6514 34.8197 46.8103 38.2578 45.1159C41.6958 43.4215 45.1684 43.6268 48.6237 45.4582C48.6237 45.1501 48.6237 44.9276 48.6237 44.7051C48.6237 41.4361 48.6237 38.1671 48.6237 34.8981C48.6237 34.3504 48.7619 33.9225 49.3148 33.7171C49.9713 33.4946 50.5587 33.9909 50.5759 34.7611C50.5932 36.2502 50.5759 37.7563 50.5759 39.2453C50.5759 41.6072 50.5587 43.9863 50.5932 46.3482C50.5932 46.6734 50.7487 47.0499 50.9733 47.2895C54.0658 50.5243 54.8778 55.2823 52.9947 59.3044C51.0942 63.3436 46.8615 65.8596 42.3869 65.5686C40.9702 65.4831 39.6226 65.1236 38.3614 64.5075C37.5494 64.1138 37.273 63.6004 37.5667 63.0356C37.8431 62.4879 38.3787 62.4023 39.1907 62.7788C44.4255 65.2263 50.5068 62.351 51.8371 56.8056C53.0119 51.9449 49.8158 47.0841 44.8056 46.0914C39.9163 45.1159 35.0961 48.402 34.2841 53.3141C33.9041 55.522 34.3187 57.5929 35.5108 59.5098C35.6317 59.7152 35.7872 59.9035 35.839 60.126C35.96 60.5881 35.7699 60.9989 35.338 61.1871C34.8543 61.4096 34.4051 61.2898 34.0941 60.8277C33.213 59.5441 32.6429 58.1235 32.3837 56.5831C32.3146 56.2066 32.2801 55.83 32.211 55.3508C31.9691 55.3508 31.7272 55.3508 31.4853 55.3508C22.2424 55.3508 12.9994 55.2995 3.75645 55.385C1.37229 55.4022 0.0419922 54.1356 0.0419922 51.8079C0.0938219 35.7709 0.0938219 19.7339 0.0419922 3.71402C0.0419922 1.91691 0.577566 0.650381 2.3225 0C17.6123 0 32.9193 0 48.2263 0Z" fill="#333333"/>
<path d="M25.3173 11.0908C30.6385 11.0908 35.9597 11.0908 41.2809 11.0908C43.2159 11.0908 44.0451 11.8952 44.0451 13.8121C44.0451 22.2671 44.0451 30.722 44.0451 39.177C44.0451 41.0254 43.1813 41.8812 41.3154 41.8812C30.6212 41.8812 19.9443 41.8812 9.25013 41.8812C7.41882 41.8812 6.57227 41.0254 6.57227 39.2112C6.57227 30.722 6.57227 22.2157 6.57227 13.7266C6.57227 11.9295 7.40154 11.1079 9.21558 11.1079C14.5886 11.0908 19.9443 11.0908 25.3173 11.0908ZM23.0541 30.4482C23.8316 29.6609 24.5399 28.9592 25.2655 28.2403C26.5267 26.9909 27.7533 26.9738 29.0145 28.2232C32.7981 31.9715 36.5817 35.7026 40.3479 39.4508C40.4516 39.5535 40.5553 39.7247 40.6762 39.7589C41.0563 39.8274 41.4709 39.9129 41.851 39.8616C41.9719 39.8445 42.0929 39.3995 42.0929 39.1599C42.1102 30.7049 42.0929 22.25 42.1102 13.795C42.1102 13.1789 41.9201 12.9906 41.2982 12.9906C30.6212 13.0077 19.9616 13.0077 9.28469 12.9906C8.64545 12.9906 8.48996 13.196 8.48996 13.8121C8.50724 17.8514 8.50724 21.8906 8.50724 25.9127C8.50724 26.1009 8.50724 26.2721 8.50724 26.5801C8.78367 26.3234 8.95643 26.1694 9.11192 26.0153C10.1485 24.9884 11.1678 23.9615 12.2217 22.9346C13.1028 22.0788 14.364 21.9933 15.2624 22.7463C15.7288 23.1229 16.1435 23.5679 16.5581 24.0129C16.9382 24.4236 16.9209 24.9884 16.5581 25.3478C16.1953 25.7073 15.6425 25.7415 15.2105 25.3821C14.8996 25.1253 14.6059 24.8344 14.3467 24.5263C13.9839 24.0984 13.7075 24.1669 13.3447 24.5434C11.8762 26.0153 10.3904 27.4701 8.93916 28.9592C8.69728 29.1988 8.52452 29.6096 8.52452 29.9347C8.50724 32.9813 8.50724 36.0278 8.50724 39.0914C8.50724 39.9472 8.50724 39.9472 9.37107 39.9472C18.7004 39.9472 28.0298 39.9472 37.3764 39.9472C37.5491 39.9472 37.7392 39.9301 37.9638 39.9129C37.8947 39.8103 37.8774 39.7418 37.8428 39.6904C34.4221 36.2845 30.9841 32.8957 27.5633 29.4897C27.2696 29.1988 27.045 29.1988 26.7513 29.4897C25.9393 30.3113 25.1273 31.1328 24.2807 31.9372C23.607 32.5876 22.7086 32.6903 22.0693 32.1084C20.7736 30.8932 19.5124 29.6267 18.2685 28.3601C17.8884 27.9665 17.923 27.4873 18.3031 27.0936C18.6659 26.7 19.1842 26.6828 19.6333 27.0423C19.8061 27.1792 19.9443 27.3332 20.0998 27.4873C21.05 28.4457 22.0348 29.4213 23.0541 30.4482Z" fill="#333333"/>
<path d="M14.0534 7.97579C12.2221 7.97579 10.3908 7.97579 8.55949 7.97579C8.09302 7.97579 7.69566 7.8731 7.48834 7.41098C7.17737 6.72637 7.66111 6.07599 8.50766 6.05888C9.63064 6.04176 10.7536 6.05888 11.8593 6.05888C14.3471 6.05888 16.8522 6.05888 19.3401 6.05888C19.5301 6.05888 19.7374 6.04176 19.9275 6.07599C20.4803 6.16157 20.8431 6.57233 20.774 7.08579C20.7222 7.63348 20.3939 7.94156 19.8411 7.95867C18.7008 7.97579 17.5606 7.97579 16.4203 7.97579C15.6602 7.97579 14.8482 7.97579 14.0534 7.97579Z" fill="#333333"/>
<path d="M26.8895 7.97576C26.2157 7.97576 25.5592 7.99288 24.8854 7.97576C24.2462 7.95865 23.8834 7.59923 23.8834 7.05154C23.8661 6.50385 24.2289 6.09308 24.8509 6.07597C26.233 6.04174 27.5979 6.04174 28.98 6.07597C29.6192 6.09308 30.0166 6.52096 29.9993 7.06865C29.982 7.59923 29.5847 7.95865 28.9627 7.97576C28.2716 7.99288 27.5806 7.97576 26.8895 7.97576Z" fill="#333333"/>
<path d="M18.4755 47.683C17.7153 47.6659 17.1452 47.084 17.1625 46.3309C17.1798 45.595 17.7844 44.9959 18.5273 45.0131C19.253 45.0302 19.8749 45.6634 19.8576 46.3823C19.8404 47.1182 19.2357 47.7001 18.4755 47.683Z" fill="url(#paint0_linear_1850_1125)"/>
<path d="M10.2349 46.3823C10.2177 47.1354 9.63026 47.683 8.87009 47.683C8.1272 47.6659 7.52252 47.0669 7.55707 46.3309C7.57435 45.595 8.21358 44.9959 8.9392 45.0131C9.68209 45.0302 10.2522 45.6463 10.2349 46.3823Z" fill="url(#paint1_linear_1850_1125)"/>
<path d="M13.6731 47.683C12.9129 47.6659 12.3428 47.084 12.3428 46.3309C12.36 45.595 12.9647 44.9959 13.7076 45.0131C14.4505 45.0302 15.0379 45.6292 15.0379 46.3823C15.0379 47.1182 14.4332 47.7001 13.6731 47.683Z" fill="url(#paint2_linear_1850_1125)"/>
<path opacity="0.7" d="M23.0551 30.4478C22.0185 29.4209 21.051 28.4453 20.0835 27.4869C19.928 27.3328 19.7898 27.1788 19.617 27.0419C19.1678 26.6825 18.6323 26.6996 18.2867 27.0932C17.9239 27.504 17.8721 27.9832 18.2522 28.3597C19.4961 29.6263 20.7573 30.8928 22.053 32.108C22.6922 32.707 23.5906 32.5872 24.2644 31.9368C25.0937 31.1324 25.923 30.3109 26.735 29.4894C27.0287 29.1984 27.236 29.1813 27.547 29.4894C30.9677 32.8953 34.4058 36.2841 37.8265 39.6901C37.8611 39.7243 37.8956 39.7928 37.9475 39.9126C37.7229 39.9297 37.5501 39.9468 37.36 39.9468C28.0307 39.9468 18.7014 39.9468 9.35474 39.9468C8.49091 39.9468 8.49091 39.9468 8.49091 39.091C8.49091 36.0445 8.47363 32.9809 8.50819 29.9344C8.50819 29.6092 8.69823 29.1984 8.92282 28.9588C10.3741 27.4698 11.8771 26.0321 13.3283 24.543C13.6912 24.1665 13.9676 24.1152 14.3304 24.5259C14.5895 24.834 14.8832 25.125 15.1942 25.3817C15.6261 25.7411 16.179 25.724 16.5418 25.3475C16.9046 24.988 16.9219 24.4232 16.5418 24.0125C16.1272 23.5675 15.7125 23.1396 15.246 22.7459C14.3477 21.9929 13.0865 22.0784 12.2054 22.9342C11.1515 23.944 10.1322 24.988 9.09559 26.015C8.9401 26.169 8.76733 26.323 8.49091 26.5798C8.49091 26.2717 8.49091 26.0834 8.49091 25.9123C8.49091 21.8731 8.50819 17.8339 8.47363 13.8118C8.47363 13.2127 8.62912 12.9902 9.26836 12.9902C19.9453 13.0073 30.6049 13.0073 41.2818 12.9902C41.9038 12.9902 42.0938 13.1785 42.0938 13.7947C42.0765 22.2496 42.0765 30.7045 42.0765 39.1595C42.0765 39.3991 41.9556 39.8441 41.8347 39.8612C41.4546 39.9126 41.0572 39.8441 40.6599 39.7585C40.5389 39.7414 40.4526 39.5531 40.3316 39.4504C36.548 35.7022 32.7645 31.954 28.9982 28.2228C27.737 26.9734 26.5104 26.9734 25.2492 28.2399C24.5581 28.9588 23.8498 29.6776 23.0551 30.4478ZM30.1039 21.12C30.0866 23.0198 31.6242 24.5602 33.5247 24.5602C35.3905 24.5602 36.9454 23.0369 36.9627 21.1885C36.98 19.3229 35.4251 17.7654 33.5247 17.7654C31.6242 17.7654 30.1039 19.2544 30.1039 21.12Z" fill="url(#paint3_linear_1850_1125)"/>
<path d="M30.1027 21.1202C30.12 19.2547 31.623 17.7656 33.5234 17.7656C35.4239 17.7656 36.9788 19.306 36.9615 21.1887C36.9442 23.0371 35.3893 24.5604 33.5234 24.5604C31.623 24.5604 30.0854 23.02 30.1027 21.1202ZM32.0377 21.1544C32.0377 21.976 32.6769 22.6264 33.4889 22.6435C34.3009 22.6606 35.0265 21.9418 35.0092 21.1373C34.992 20.3329 34.3354 19.6996 33.5062 19.6996C32.6769 19.6996 32.0377 20.3158 32.0377 21.1544Z" fill="#333333"/>
<path d="M32.0381 21.1545C32.0381 20.333 32.6773 19.6997 33.5066 19.6997C34.3359 19.6997 34.9924 20.333 35.0096 21.1374C35.0269 21.9418 34.3186 22.6607 33.4893 22.6435C32.6773 22.6264 32.0381 21.9589 32.0381 21.1545Z" fill="white"/>
<path d="M46.5141 51.4154C46.6724 51.2648 46.8829 51.1815 47.1014 51.1831C47.3199 51.1848 47.5292 51.2712 47.6851 51.4243C47.8411 51.5773 47.9315 51.7849 47.9373 52.0033C47.943 52.2218 47.8637 52.4339 47.7161 52.5949L43.234 58.2004C43.1569 58.2834 43.0639 58.35 42.9605 58.3962C42.8571 58.4425 42.7454 58.4674 42.6321 58.4695C42.5189 58.4716 42.4064 58.4508 42.3013 58.4084C42.1963 58.3661 42.1009 58.3029 42.0208 58.2228L39.0484 55.2505C38.9656 55.1734 38.8993 55.0803 38.8532 54.977C38.8072 54.8737 38.7824 54.7621 38.7804 54.649C38.7784 54.5358 38.7992 54.4235 38.8416 54.3186C38.884 54.2137 38.947 54.1184 39.027 54.0384C39.107 53.9584 39.2023 53.8953 39.3072 53.8529C39.4121 53.8105 39.5245 53.7897 39.6376 53.7917C39.7508 53.7937 39.8623 53.8185 39.9657 53.8645C40.069 53.9106 40.162 53.977 40.2392 54.0597L42.5914 56.4109L46.4928 51.4401C46.4998 51.4315 46.5073 51.4232 46.5152 51.4154H46.5141Z" fill="url(#paint4_linear_1850_1125)"/>
<defs>
<linearGradient id="paint0_linear_1850_1125" x1="17.1621" y1="47.6834" x2="19.858" y2="47.6834" gradientUnits="userSpaceOnUse">
<stop stop-color="#F60093"/>
<stop offset="1" stop-color="#FD5B7A"/>
</linearGradient>
<linearGradient id="paint1_linear_1850_1125" x1="7.55566" y1="47.683" x2="10.2353" y2="47.683" gradientUnits="userSpaceOnUse">
<stop stop-color="#F60093"/>
<stop offset="1" stop-color="#FD5B7A"/>
</linearGradient>
<linearGradient id="paint2_linear_1850_1125" x1="12.3428" y1="47.6834" x2="15.0379" y2="47.6834" gradientUnits="userSpaceOnUse">
<stop stop-color="#F60093"/>
<stop offset="1" stop-color="#FD5B7A"/>
</linearGradient>
<linearGradient id="paint3_linear_1850_1125" x1="8.47363" y1="39.9468" x2="42.0938" y2="39.9468" gradientUnits="userSpaceOnUse">
<stop stop-color="#F60093"/>
<stop offset="1" stop-color="#FD5B7A"/>
</linearGradient>
<linearGradient id="paint4_linear_1850_1125" x1="38.7803" y1="58.4696" x2="47.9375" y2="58.4696" gradientUnits="userSpaceOnUse">
<stop stop-color="#F60093"/>
<stop offset="1" stop-color="#FD5B7A"/>
</linearGradient>
</defs>
</svg>
