<svg width="87" height="89" viewBox="0 0 87 89" fill="none" xmlns="http://www.w3.org/2000/svg">
<g clip-path="url(#clip0_1869_974)">
<path d="M0.853254 88.9999C-0.0926491 88.2799 -0.184932 87.9315 0.207271 86.7935C2.26057 80.8942 4.31387 74.9717 6.36718 69.0725C6.41332 68.9331 6.45946 68.7938 6.52867 68.6776C6.85166 67.9344 7.52071 67.6093 8.21284 67.8647C8.83575 68.097 9.18181 68.7705 8.97418 69.5138C8.62811 70.6053 8.23591 71.6969 7.86678 72.7885C7.31308 74.3679 6.78245 75.924 6.20568 77.573C6.62095 77.3872 6.71324 77.062 6.87473 76.8065C8.58197 74.2285 10.2431 71.6273 11.9503 69.0492C12.8501 67.7022 13.7729 67.6789 14.6496 69.026C15.6416 70.5357 16.6568 72.0686 17.6257 73.6014C17.9026 74.0427 18.041 74.0195 18.3179 73.6014C19.9328 71.0699 21.5939 68.5615 23.255 66.0764C23.5088 65.7048 23.4396 65.4957 23.1396 65.217C21.9861 64.1254 20.9479 62.9177 19.9328 61.5707C19.2407 62.639 18.5716 63.6609 17.8795 64.6829C17.072 65.9138 16.1261 65.9138 15.3186 64.7061C14.3266 63.2197 13.3576 61.71 12.2964 60.1074C11.858 61.3152 11.4889 62.4068 11.0967 63.4984C11.0044 63.7771 10.9352 64.0558 10.8198 64.3113C10.4968 65.0545 9.8278 65.4028 9.15874 65.1474C8.46662 64.8919 8.12056 64.2184 8.37433 63.4519C9.13567 61.2455 9.92008 59.0391 10.6814 56.8327C10.866 56.2985 11.2351 55.9501 11.7888 55.8572C12.3656 55.7643 12.7809 56.0662 13.0808 56.5307C14.119 58.1101 15.1802 59.7126 16.1953 61.3152C16.5183 61.8261 16.6106 61.7565 16.9797 61.3152C18.1102 59.9913 18.2717 58.83 17.3258 57.1578C15.2264 53.3953 14.3958 49.2147 14.3266 44.8948C14.3035 43.8264 14.8111 43.2225 15.6416 43.2458C16.4491 43.269 16.8875 43.8264 16.9105 44.8715C17.2105 57.5526 26.0235 68.0041 38.3202 70.2105C44.2264 71.2789 49.8556 70.2802 55.1619 67.4467C55.3696 67.3306 55.5541 67.2144 55.7618 67.1215C56.5 66.7732 57.2152 67.0054 57.5382 67.6557C57.8612 68.2828 57.6305 69.0028 56.9384 69.4209C55.0696 70.5124 53.1086 71.395 51.0322 71.9989C42.0808 74.5537 33.7522 73.1601 26.1158 67.7718C25.5159 67.3538 25.3314 67.4931 24.9853 68.0041C23.0935 70.9305 21.1786 73.8569 19.2638 76.7833C18.364 78.1536 17.4412 78.1536 16.5414 76.7833C15.4571 75.1343 14.3958 73.5085 13.3115 71.8595C12.9424 71.906 12.8962 72.2544 12.7578 72.4634C9.41252 77.573 6.06725 82.7058 2.72199 87.8154C2.42207 88.2799 2.09908 88.698 1.66073 89.0231" fill="#333333"/>
<path d="M76.918 0.000110718C75.9951 -0.0231147 75.4414 0.325267 74.9569 1.09171C73.1805 3.87876 71.3348 6.64259 69.4892 9.49933C68.3125 7.71097 67.1821 5.96906 66.0285 4.22715C65.521 3.46071 64.8519 3.25168 64.2059 3.60006C63.8368 3.80909 63.6292 4.15747 63.4215 4.50585C60.5377 8.89546 57.6769 13.3083 54.8161 17.6979C54.6085 18.0231 54.4931 18.3715 53.9164 18.116C51.0787 16.8618 48.1025 16.165 45.011 15.9096C45.011 15.9096 42.1272 15.7702 40.766 15.9096C37.19 16.2812 33.7525 17.1173 30.5226 18.6734C28.4231 19.6953 26.4852 20.9727 24.6395 22.4591C23.3245 23.5972 22.6324 24.3404 22.3324 24.6423C21.6403 25.3855 20.9713 26.1288 20.3483 26.9417C17.6029 30.4487 15.8265 34.4203 14.9267 38.8099C14.7652 39.646 15.1574 40.3195 15.8726 40.5053C16.5878 40.6679 17.2338 40.2266 17.4414 39.3905C17.5337 38.9957 17.6029 38.6008 17.7183 38.206C21.2712 24.3172 34.7907 16.0025 48.6793 19.1379C60.0763 21.7159 68.5894 32.1906 68.7047 43.9427C68.797 51.8161 65.9363 58.4354 60.2378 63.8005C59.4534 64.5437 59.3149 65.3101 59.8686 65.914C60.4223 66.5411 61.1837 66.4714 61.9911 65.7514C70.5735 57.9476 73.6188 45.3827 69.5353 34.5364C68.151 30.8668 66.1439 27.592 63.4446 24.7585C63.0755 24.3869 62.4756 23.6669 61.0452 22.4591C59.7763 21.4372 58.4844 20.485 57.1232 19.7185C56.731 19.4863 56.8464 19.3237 57.0309 19.045C59.6148 15.0967 62.2219 11.1251 64.8519 7.1071C65.9824 8.82579 67.0436 10.4748 68.151 12.1238C69.0739 13.5173 69.9736 13.5173 70.8965 12.1006C72.8344 9.12772 74.7724 6.15486 76.7103 3.182C76.9641 2.78717 77.2179 2.57814 77.7254 2.60136C79.548 2.64781 81.3476 2.62459 83.2163 2.62459C83.1932 2.76394 83.2163 2.83362 83.1701 2.88007C78.8098 9.54578 74.4494 16.2115 70.1121 22.8772C69.8814 23.2488 69.7429 23.2953 69.3277 23.063C68.8201 22.7611 68.2433 22.854 67.8281 23.3185C67.3897 23.8062 67.3666 24.3636 67.6896 24.921C67.9203 25.3159 68.1741 25.7107 68.4279 26.0823C69.3046 27.3829 70.2505 27.4062 71.081 26.1055C76.2489 18.2089 81.3937 10.3122 86.5616 2.41556C86.9076 1.88137 87.1845 1.37041 86.8384 0.743326C86.4923 0.116238 85.9156 0.0465616 85.2927 0.0465616" fill="#333333"/>
<path d="M66.1208 44.4533C66.1438 57.3899 55.7389 67.9342 42.8884 67.9807C30.0611 68.0271 19.5639 57.506 19.5177 44.5694C19.4716 31.6561 29.9227 21.0885 42.7731 21.042C55.6005 21.0188 66.0746 31.5167 66.1208 44.4533Z" fill="#333333"/>
<path opacity="0.7" d="M25.6081 32.9336C27.0155 30.7736 28.7919 28.9852 30.8683 27.4756C31.1682 27.2433 31.3528 27.1272 31.6527 27.5685C32.0449 28.1724 32.6909 28.3117 33.3138 27.9401C33.9136 27.5685 34.1674 26.9879 33.8213 26.2911C33.6368 25.9195 33.6829 25.7569 34.0751 25.5943C36.2899 24.5724 38.597 23.9685 41.0194 23.7363C41.4347 23.6898 41.5039 23.8524 41.5501 24.2008C41.6193 24.944 42.0576 25.3621 42.7959 25.3853C43.5342 25.4085 43.9956 24.9905 44.0879 24.2473C44.134 23.7595 44.3186 23.7131 44.7569 23.7595C47.0871 23.9918 49.3249 24.5724 51.4474 25.5711C51.6782 25.6872 52.1396 25.664 51.8627 26.1982C51.4936 26.9182 51.6551 27.5917 52.3703 27.9633C53.1085 28.3582 53.6853 28.0562 54.1467 27.4059C54.1929 27.3362 54.239 27.2666 54.3082 27.1969C56.4769 28.6369 58.2764 30.4252 59.776 32.562C60.0067 32.8871 60.0298 33.0265 59.6607 33.2587C59.0608 33.6768 58.8993 34.3039 59.2684 34.931C59.6376 35.5581 60.2143 35.8135 60.8834 35.4652C61.3448 35.2329 61.4602 35.4187 61.6217 35.7903C62.6137 37.9967 63.2136 40.2961 63.4443 42.7115C63.4904 43.0831 63.3981 43.2225 63.0059 43.2457C62.2677 43.2921 61.8293 43.7334 61.8062 44.4766C61.7832 45.2431 62.2215 45.7076 63.0059 45.8005C63.352 45.8469 63.4904 45.9398 63.4443 46.3347C63.2136 48.7501 62.6137 51.0495 61.5986 53.2559C61.4371 53.6043 61.3217 53.8133 60.8603 53.5578C60.1913 53.2094 59.6145 53.4649 59.2454 54.092C58.8762 54.7423 59.0377 55.3694 59.6145 55.7642C59.9606 56.0197 59.9606 56.1358 59.7299 56.461C58.2303 58.5745 56.4307 60.3861 54.2621 61.8261C53.9391 61.3151 53.57 60.8738 52.9009 60.8738C52.0242 60.8738 51.4013 61.7796 51.7474 62.6622C51.955 63.1499 51.8166 63.2893 51.4013 63.4751C49.2326 64.4506 46.9717 65.0544 44.6185 65.2867C44.1571 65.3331 44.0879 65.1705 44.0417 64.7989C43.9494 64.079 43.488 63.6377 42.7728 63.6609C42.0576 63.6609 41.5962 64.1022 41.527 64.8454C41.5039 65.2867 41.3424 65.3331 40.9272 65.3099C38.5509 65.0776 36.2899 64.4738 34.1443 63.4751C33.9136 63.359 33.4984 63.359 33.7521 62.848C34.1443 62.128 33.9367 61.4545 33.1984 61.0829C32.4602 60.688 31.8834 60.99 31.4451 61.6635C31.3989 61.7332 31.3297 61.8029 31.2605 61.8725C29.1149 60.4325 27.3384 58.6674 25.8388 56.5771C25.6081 56.2752 25.5159 56.0894 25.9311 55.7875C26.531 55.3926 26.6694 54.7423 26.3003 54.1152C25.9311 53.5114 25.3313 53.2327 24.6853 53.6043C24.2008 53.8597 24.1085 53.6043 23.947 53.2791C22.9781 51.0959 22.3552 48.8198 22.1475 46.4508C22.1014 46.0328 22.1937 45.8934 22.6089 45.8469C23.3472 45.7773 23.7625 45.3128 23.7625 44.5695C23.7625 43.8263 23.3472 43.3618 22.6089 43.2921C22.1937 43.2457 22.1014 43.1296 22.1475 42.7115C22.3552 40.2961 22.9781 37.9967 23.9932 35.7903C24.1085 35.5581 24.1547 35.2329 24.593 35.4652C25.3082 35.8368 25.9542 35.651 26.3464 34.931C26.7386 34.1878 26.4156 33.6071 25.7696 33.1658C25.7466 33.0729 25.6774 33.0033 25.6081 32.9336Z" fill="white"/>
<path opacity="0.8" d="M25.6081 32.9336C27.0155 30.7736 28.7919 28.9852 30.8683 27.4756C31.1682 27.2433 31.3528 27.1272 31.6527 27.5685C32.0449 28.1724 32.6909 28.3117 33.3138 27.9401C33.9136 27.5685 34.1674 26.9879 33.8213 26.2911C33.6368 25.9195 33.6829 25.7569 34.0751 25.5943C36.2899 24.5724 38.597 23.9685 41.0194 23.7363C41.4347 23.6898 41.5039 23.8524 41.5501 24.2008C41.6193 24.944 42.0576 25.3621 42.7959 25.3853C43.5342 25.4085 43.9956 24.9905 44.0879 24.2473C44.134 23.7595 44.3186 23.7131 44.7569 23.7595C47.0871 23.9918 49.3249 24.5724 51.4474 25.5711C51.6782 25.6872 52.1396 25.664 51.8627 26.1982C51.4936 26.9182 51.6551 27.5917 52.3703 27.9633C53.1085 28.3582 53.6853 28.0562 54.1467 27.4059C54.1929 27.3362 54.239 27.2666 54.3082 27.1969C56.4769 28.6369 58.2764 30.4252 59.776 32.562C60.0067 32.8871 60.0298 33.0265 59.6607 33.2587C59.0608 33.6768 58.8993 34.3039 59.2684 34.931C59.6376 35.5581 60.2143 35.8135 60.8834 35.4652C61.3448 35.2329 61.4602 35.4187 61.6217 35.7903C62.6137 37.9967 63.2136 40.2961 63.4443 42.7115C63.4904 43.0831 63.3981 43.2225 63.0059 43.2457C62.2677 43.2921 61.8293 43.7334 61.8062 44.4766C61.7832 45.2431 62.2215 45.7076 63.0059 45.8005C63.352 45.8469 63.4904 45.9398 63.4443 46.3347C63.2136 48.7501 62.6137 51.0495 61.5986 53.2559C61.4371 53.6043 61.3217 53.8133 60.8603 53.5578C60.1913 53.2094 59.6145 53.4649 59.2454 54.092C58.8762 54.7423 59.0377 55.3694 59.6145 55.7642C59.9606 56.0197 59.9606 56.1358 59.7299 56.461C58.2303 58.5745 56.4307 60.3861 54.2621 61.8261C53.9391 61.3151 53.57 60.8738 52.9009 60.8738C52.0242 60.8738 51.4013 61.7796 51.7474 62.6622C51.955 63.1499 51.8166 63.2893 51.4013 63.4751C49.2326 64.4506 46.9717 65.0544 44.6185 65.2867C44.1571 65.3331 44.0879 65.1705 44.0417 64.7989C43.9494 64.079 43.488 63.6377 42.7728 63.6609C42.0576 63.6609 41.5962 64.1022 41.527 64.8454C41.5039 65.2867 41.3424 65.3331 40.9272 65.3099C38.5509 65.0776 36.2899 64.4738 34.1443 63.4751C33.9136 63.359 33.4984 63.359 33.7521 62.848C34.1443 62.128 33.9367 61.4545 33.1984 61.0829C32.4602 60.688 31.8834 60.99 31.4451 61.6635C31.3989 61.7332 31.3297 61.8029 31.2605 61.8725C29.1149 60.4325 27.3384 58.6674 25.8388 56.5771C25.6081 56.2752 25.5159 56.0894 25.9311 55.7875C26.531 55.3926 26.6694 54.7423 26.3003 54.1152C25.9311 53.5114 25.3313 53.2327 24.6853 53.6043C24.2008 53.8597 24.1085 53.6043 23.947 53.2791C22.9781 51.0959 22.3552 48.8198 22.1475 46.4508C22.1014 46.0328 22.1937 45.8934 22.6089 45.8469C23.3472 45.7773 23.7625 45.3128 23.7625 44.5695C23.7625 43.8263 23.3472 43.3618 22.6089 43.2921C22.1937 43.2457 22.1014 43.1296 22.1475 42.7115C22.3552 40.2961 22.9781 37.9967 23.9932 35.7903C24.1085 35.5581 24.1547 35.2329 24.593 35.4652C25.3082 35.8368 25.9542 35.651 26.3464 34.931C26.7386 34.1878 26.4156 33.6071 25.7696 33.1658C25.7466 33.0729 25.6774 33.0033 25.6081 32.9336Z" fill="url(#paint0_linear_1869_974)"/>
<path d="M42.1465 50.5371C42.1465 48.9015 42.1465 47.2962 42.1465 45.6909C42.1465 45.2063 41.853 45.0851 41.4616 44.9337C40.6789 44.6005 39.8635 44.2976 39.1133 43.9039C36.9607 42.7832 36.2106 40.9962 36.5368 38.7851C36.8629 36.6952 38.2327 35.4231 40.3853 34.8173C41.2007 34.575 42.3749 34.7264 42.3422 33.3938C42.3422 33.1212 42.8641 33 43.2228 33C43.6142 33.0303 44.1035 33.1212 44.1035 33.5452C44.0708 34.4539 44.6905 34.4236 45.3754 34.4539C46.3213 34.5144 47.2671 34.6962 48.1151 35.1505C49.1588 35.6957 49.3871 36.5438 48.8979 37.513C48.376 38.5428 47.5607 38.4519 46.6148 38.0582C44.1687 37.1192 44.2665 37.1495 44.1035 39.6029C44.0056 41.3294 44.2991 42.4197 46.2887 43.1164C48.9631 44.0856 49.8763 46.115 49.5502 48.9318C49.2893 51.1429 47.6911 52.839 45.1798 53.5054C44.5601 53.6568 43.9404 53.6871 44.0382 54.5957C44.1035 55.0804 43.549 55.2015 43.0924 55.2318C42.6032 55.2318 42.1465 55.0501 42.1465 54.5957C42.1139 53.778 41.6247 53.8082 40.9724 53.7174C39.4069 53.5357 37.9392 53.051 36.7651 52.0212C36.0801 51.4154 35.7866 50.6885 36.0801 49.8404C36.4715 48.5986 37.3521 48.2957 38.5589 48.9621C39.6678 49.5981 40.6136 50.4765 42.1465 50.5371Z" fill="#333333"/>
<path d="M43.874 50.5376C43.874 49.1443 43.874 47.8722 43.874 46.6001C43.874 46.0246 44.0371 45.8731 44.5916 46.176C45.5374 46.6909 46.1897 47.4179 46.0919 48.5082C45.994 49.6289 45.2439 50.2953 43.874 50.5376Z" fill="#F6F6F6"/>
<path d="M42.4073 41.5719C41.755 41.2388 41.331 41.057 40.907 40.8147C40.1568 40.3604 39.9285 39.7243 40.1242 38.9368C40.3525 38.1493 41.0374 37.8161 41.7876 37.5738C42.2442 37.4527 42.3746 37.695 42.3746 38.0887C42.4073 39.2094 42.4073 40.2695 42.4073 41.5719Z" fill="#FCFCFC"/>
</g>
<defs>
<linearGradient id="paint0_linear_1869_974" x1="22.1367" y1="65.3147" x2="63.4551" y2="65.3147" gradientUnits="userSpaceOnUse">
<stop stop-color="#F60093"/>
<stop offset="1" stop-color="#FD5B7A"/>
</linearGradient>
<clipPath id="clip0_1869_974">
<rect width="87" height="89" fill="white"/>
</clipPath>
</defs>
</svg>
